<svg xmlns="http://www.w3.org/2000/svg" xmlns:xlink="http://www.w3.org/1999/xlink" width="149.6782" height="129.0529" viewBox="0 0 149.6782 129.0529">
  <defs>
    <linearGradient id="linear-gradient" x1="-917.877" y1="-521.867" x2="-1001.603" y2="-521.867" gradientTransform="translate(1034.5791 586.3935)" gradientUnits="userSpaceOnUse">
      <stop offset="0" stop-color="#ff895f"/>
      <stop offset="1" stop-color="#ffcc63"/>
    </linearGradient>
    <linearGradient id="linear-gradient-2" x1="-164.8173" y1="-2972.1438" x2="-140.4296" y2="-2972.1438" gradientTransform="translate(-1930.8515 2289.6387) rotate(45)" gradientUnits="userSpaceOnUse">
      <stop offset="0" stop-color="#4b6182"/>
      <stop offset="0.0288" stop-color="#2d3d54"/>
      <stop offset="1" stop-color="#577290"/>
    </linearGradient>
    <linearGradient id="linear-gradient-3" x1="-158.4931" y1="-3050.9851" x2="-158.4931" y2="-3077.6087" gradientTransform="translate(-1930.8515 2289.6387) rotate(45)" gradientUnits="userSpaceOnUse">
      <stop offset="0" stop-color="#2d3d54"/>
      <stop offset="1" stop-color="#577290"/>
    </linearGradient>
    <linearGradient id="linear-gradient-4" x1="-142.2588" y1="-2972.1438" x2="-118.3905" y2="-2972.1438" gradientTransform="translate(-1930.8515 2289.6387) rotate(45)" gradientUnits="userSpaceOnUse">
      <stop offset="0" stop-color="#364254"/>
      <stop offset="1" stop-color="#577290"/>
    </linearGradient>
    <linearGradient id="linear-gradient-5" x1="-158.4932" y1="-2952.4538" x2="-158.4932" y2="-3055.5862" gradientTransform="translate(-1930.8515 2289.6387) rotate(45)" gradientUnits="userSpaceOnUse">
      <stop offset="0" stop-color="#141f36"/>
      <stop offset="1" stop-color="#2d3d54"/>
    </linearGradient>
    <linearGradient id="linear-gradient-6" x1="-198.5821" y1="-2972.1438" x2="-174.7138" y2="-2972.1438" xlink:href="#linear-gradient-4"/>
  </defs>
  <g id="Camada_2" data-name="Camada 2">
    <g id="Infos">
      <g>
        <rect x="32.9761" y="-5.5806" width="83.726" height="140.214" rx="41.863" transform="translate(139.3655 -10.3126) rotate(90)" fill="url(#linear-gradient)"/>
        <rect x="29.9042" y="-9.8126" width="89.8698" height="148.6782" rx="44.9348" transform="translate(139.3655 -10.3126) rotate(90)" fill="none" stroke="#ff895f" stroke-miterlimit="10"/>
      </g>
    </g>
    <g id="Ilustra">
      <g>
        <path d="M88.9585,55.373s-32.2939,5.7313-58.957,42.7023l2.1805,2.18S51.41,83.01,69.7267,90.463C69.7267,90.463,86.4071,73.3862,88.9585,55.373Z" stroke="#141f36" stroke-linecap="round" stroke-linejoin="round" fill="url(#linear-gradient-2)"/>
        <path d="M131.5857,37.3035A66.153,66.153,0,0,0,97.3266,3.0723C109.3812-.4731,121.4219-.0839,127.331,2.6c2.0717-1.9326,4.6856-2.4888,5.9509-1.2235s.6951,3.8652-1.2374,5.9369C134.7279,13.2221,135.1172,25.235,131.5857,37.3035Z" stroke="#141f36" stroke-miterlimit="10" fill="url(#linear-gradient-3)"/>
        <path d="M103.3545,69.7689S97.34,101.78,60.4791,128.5529l-2.1341-2.1341S75.6116,107.2122,68.4333,89.17C68.4333,89.17,85.5059,72.485,103.3545,69.7689Z" stroke="#141f36" stroke-linecap="round" stroke-linejoin="round" fill="url(#linear-gradient-4)"/>
        <path d="M61.6771,95.1157A60.5285,60.5285,0,0,1,53.2515,89.36a3.0118,3.0118,0,0,1,.0277.5006,8.437,8.437,0,0,1-2.4887,6.02L38.7636,83.8536a8.4608,8.4608,0,0,1,6.3681-2.4749,39.2813,39.2813,0,0,1-5.5894-8.3979S57.5756,33.2019,75.0388,15.7387A52.0424,52.0424,0,0,1,97.3266,3.0723a66.153,66.153,0,0,1,34.2591,34.2312,52.0577,52.0577,0,0,1-12.68,22.3017C101.4421,77.0684,61.6771,95.1157,61.6771,95.1157Z" stroke="#141f36" stroke-miterlimit="10" fill="url(#linear-gradient-5)"/>
        <path d="M64.8848,31.2992S32.8737,37.3134,6.1008,74.1746l2.1341,2.1341S27.4415,59.0421,45.4841,66.22C45.4841,66.22,62.1687,49.1478,64.8848,31.2992Z" stroke="#141f36" stroke-linecap="round" stroke-linejoin="round" fill="url(#linear-gradient-6)"/>
        <path d="M113.1851,43.9673c-4.783,4.783-11.8879,5.4365-15.8644,1.46a8.9237,8.9237,0,0,1-2.5582-5.9787,11.6546,11.6546,0,0,1,.9871-5.353,13.9419,13.9419,0,0,1,3.045-4.5187c4.7829-4.7828,11.8878-5.4364,15.85-1.4738a9.1046,9.1046,0,0,1,2.5861,5.9787,11.8783,11.8783,0,0,1-1.001,5.3669A13.9417,13.9417,0,0,1,113.1851,43.9673Z" fill="#2d3d54" stroke="#141f36" stroke-miterlimit="10"/>
        <ellipse cx="82.3596" cy="60.4021" rx="10.1892" ry="8.463" transform="translate(-18.5881 75.9284) rotate(-45)" fill="#2d3d54" stroke="#141f36" stroke-miterlimit="10"/>
        <path d="M115.5187,46.2981c6.335-6.3352,7.2051-15.7365,1.9434-20.9983s-14.6636-4.3919-20.9985,1.9434S89.2585,42.98,94.52,48.2413,109.1833,52.6332,115.5187,46.2981Z" fill="none" stroke="#141f36" stroke-linecap="round" stroke-linejoin="round" stroke-width="0.5" stroke-dasharray="2.0319 2.0319"/>
        <path d="M90.4885,68.5309c5.4052-5.4052,6.1474-13.4263,1.6582-17.9158s-12.5108-3.7471-17.916,1.6581S68.0832,65.7,72.5724,70.189,85.0832,73.9361,90.4885,68.5309Z" fill="none" stroke="#141f36" stroke-linecap="round" stroke-linejoin="round" stroke-width="0.5" stroke-dasharray="1.9937 1.9937"/>
        <path d="M132.24,2.4037s-2.0332-.3519-4.7493,2.6229c0,0-6.5962-4.1388-23.9921-1.0994" fill="none" stroke="#ffcc63" stroke-linecap="round" stroke-linejoin="round" stroke-width="0.5"/>
        <path d="M97.42,5.6086s-17.2249,2.9978-29.8238,22.84" fill="none" stroke="#ffcc63" stroke-linecap="round" stroke-linejoin="round" stroke-width="0.5"/>
        <path d="M58.0435,33.3052s-2.2311,13.0309-17.9,31.4685" fill="none" stroke="#141f36" stroke-linecap="round" stroke-linejoin="round" stroke-width="0.5"/>
        <line x1="10.4915" y1="68.4557" x2="14.0358" y2="72" fill="none" stroke="#2d3d54" stroke-linecap="round" stroke-linejoin="round" stroke-width="0.5"/>
        <line x1="34.3776" y1="92.3418" x2="37.9994" y2="95.9636" fill="none" stroke="#141f36" stroke-linecap="round" stroke-linejoin="round" stroke-width="0.5"/>
        <line x1="62.6539" y1="120.6181" x2="66.1984" y2="124.1626" fill="none" stroke="#2d3d54" stroke-linecap="round" stroke-linejoin="round" stroke-width="0.5"/>
        <path d="M54.8158,36.5329a113.375,113.375,0,0,0-41.4006,31.74" fill="none" stroke="#ffcc63" stroke-linecap="round" stroke-linejoin="round" stroke-width="0.5"/>
        <path d="M72.1991,92.5235s3.4922,12.9984-7.0812,27.4519" fill="none" stroke="#ffcc63" stroke-linecap="round" stroke-linejoin="round" stroke-width="0.5"/>
        <path d="M76.1734,64.4251c-1.0769-2.3649-.2956-5.6589,2.1221-8.0766s5.7117-3.199,8.0872-2.1327" fill="none" stroke="#ffcc63" stroke-linecap="round" stroke-linejoin="round" stroke-width="0.5"/>
        <path d="M97.6961,41.91c-1.4181-3.1144-.3893-7.4524,2.7947-10.6364s7.522-4.2128,10.65-2.8086" fill="none" stroke="#ffcc63" stroke-linecap="round" stroke-linejoin="round" stroke-width="0.5"/>
      </g>
    </g>
  </g>
</svg>
