<svg xmlns="http://www.w3.org/2000/svg" xmlns:xlink="http://www.w3.org/1999/xlink" width="170.1418" height="207.3508" viewBox="0 0 170.1418 207.3508">
  <defs>
    <linearGradient id="linear-gradient" x1="11138.1759" y1="1120.0811" x2="11147.3029" y2="1110.9542" gradientTransform="matrix(-0.9652, -0.2615, -0.2615, 0.9652, 11731.4869, 1598.843)" gradientUnits="userSpaceOnUse">
      <stop offset="0" stop-color="#141f36"/>
      <stop offset="1" stop-color="#b9b9bd"/>
    </linearGradient>
    <linearGradient id="linear-gradient-2" x1="11654.2962" y1="1637.1403" x2="11672.4383" y2="1618.9982" gradientTransform="matrix(-0.9652, -0.2615, -0.2615, 0.9652, 11731.4869, 1598.843)" gradientUnits="userSpaceOnUse">
      <stop offset="0" stop-color="#fff"/>
      <stop offset="1" stop-color="#b9b9bd"/>
    </linearGradient>
    <linearGradient id="linear-gradient-3" x1="807.6811" y1="6173.466" x2="831.1699" y2="6149.9772" gradientTransform="translate(4740.6214 -3896.4148) rotate(56.9648)" gradientUnits="userSpaceOnUse">
      <stop offset="0" stop-color="#2d6cea"/>
      <stop offset="0.4984" stop-color="#2eaade"/>
      <stop offset="1" stop-color="#00dfe5"/>
    </linearGradient>
    <linearGradient id="linear-gradient-4" x1="10274.5639" y1="-3821.4175" x2="10296.6434" y2="-3821.4175" gradientTransform="translate(8168.8245 7499.3837) rotate(-117.6285)" gradientUnits="userSpaceOnUse">
      <stop offset="0" stop-color="#141f36"/>
      <stop offset="1" stop-color="#2d3d54"/>
    </linearGradient>
    <linearGradient id="linear-gradient-5" x1="-689.9473" y1="3746.9461" x2="-677.5793" y2="3734.5781" gradientTransform="translate(2628.2484 -2591.4463) rotate(33.19)" xlink:href="#linear-gradient-3"/>
    <linearGradient id="linear-gradient-6" x1="417.1565" y1="3870.929" x2="426.6405" y2="3861.4449" gradientTransform="matrix(0.8416, 0.54, -0.54, 0.8416, 1788.8001, -3314.2036)" xlink:href="#linear-gradient-3"/>
    <linearGradient id="linear-gradient-7" x1="765.6229" y1="4501.5374" x2="780.7442" y2="4486.4161" gradientTransform="translate(2326.7101 -3778.0786) rotate(39.5999)" gradientUnits="userSpaceOnUse">
      <stop offset="0" stop-color="#fff"/>
      <stop offset="1" stop-color="#f2e7e5"/>
    </linearGradient>
    <linearGradient id="linear-gradient-8" x1="776.2056" y1="4511.6731" x2="776.2056" y2="4477.481" gradientTransform="translate(2326.7101 -3778.0786) rotate(39.5999)" xlink:href="#linear-gradient"/>
    <linearGradient id="linear-gradient-9" x1="51.2617" y1="160.2526" x2="102.8299" y2="108.6844" gradientTransform="matrix(1, 0, 0, 1, 0, 0)" xlink:href="#linear-gradient-2"/>
    <linearGradient id="linear-gradient-10" x1="86.7352" y1="177.2213" x2="86.7352" y2="111.4987" gradientTransform="matrix(1, 0, 0, 1, 0, 0)" xlink:href="#linear-gradient"/>
    <linearGradient id="linear-gradient-11" x1="1420.653" y1="-2470.942" x2="1446.5469" y2="-2496.8359" gradientTransform="matrix(0.8711, -0.4911, 0.4911, 0.8711, 71.3189, 3055.0465)" xlink:href="#linear-gradient-7"/>
    <linearGradient id="linear-gradient-12" x1="511.694" y1="-1051.8919" x2="521.0761" y2="-1061.2741" gradientTransform="matrix(0.976, -0.2177, 0.2177, 0.976, -169.7563, 1323.3001)" xlink:href="#linear-gradient-3"/>
    <linearGradient id="linear-gradient-13" x1="-49.5585" y1="710.0735" x2="14.0669" y2="710.0735" gradientTransform="matrix(0.9946, 0.1039, -0.1039, 0.9946, 169.0556, -604.6008)" gradientUnits="userSpaceOnUse">
      <stop offset="0" stop-color="#f2e7e5"/>
      <stop offset="1" stop-color="#b9b9bd"/>
    </linearGradient>
    <linearGradient id="linear-gradient-14" x1="29.3725" y1="673.983" x2="41.2532" y2="662.1023" xlink:href="#linear-gradient-13"/>
    <linearGradient id="linear-gradient-15" x1="26.1361" y1="696.5545" x2="38.617" y2="684.0736" gradientTransform="matrix(0.9946, 0.1039, -0.1039, 0.9946, 169.0556, -604.6008)" xlink:href="#linear-gradient-3"/>
    <linearGradient id="linear-gradient-16" x1="22.8571" y1="676.4722" x2="39.1529" y2="660.1763" gradientTransform="matrix(0.9946, 0.1039, -0.1039, 0.9946, 169.0556, -604.6008)" xlink:href="#linear-gradient-3"/>
    <linearGradient id="linear-gradient-17" x1="11632.8121" y1="673.9855" x2="11644.698" y2="662.0996" gradientTransform="matrix(-0.9946, -0.1039, -0.1039, 0.9946, 11676.7605, 597.3005)" xlink:href="#linear-gradient-13"/>
    <linearGradient id="linear-gradient-18" x1="11629.5785" y1="696.5544" x2="11642.0591" y2="684.0738" gradientTransform="matrix(-0.9946, -0.1039, -0.1039, 0.9946, 11676.7605, 597.3005)" xlink:href="#linear-gradient-3"/>
    <linearGradient id="linear-gradient-19" x1="11626.2996" y1="676.4719" x2="11642.5952" y2="660.1763" gradientTransform="matrix(-0.9946, -0.1039, -0.1039, 0.9946, 11676.7605, 597.3005)" xlink:href="#linear-gradient-3"/>
    <linearGradient id="linear-gradient-20" x1="-50.1988" y1="707.6101" x2="18.6165" y2="638.7947" xlink:href="#linear-gradient-13"/>
    <linearGradient id="linear-gradient-21" x1="-16.5355" y1="707.0765" x2="-16.5355" y2="651.8397" gradientTransform="matrix(0.9946, 0.1039, -0.1039, 0.9946, 169.0556, -604.6008)" xlink:href="#linear-gradient"/>
    <linearGradient id="linear-gradient-22" x1="-40.1942" y1="709.5022" x2="7.1255" y2="662.1825" gradientTransform="matrix(0.9946, 0.1039, -0.1039, 0.9946, 169.0556, -604.6008)" xlink:href="#linear-gradient-4"/>
    <linearGradient id="linear-gradient-23" x1="76.271" y1="176.9161" x2="97.8654" y2="155.3217" gradientTransform="matrix(1, 0, 0, 1, 0, 0)" xlink:href="#linear-gradient"/>
    <linearGradient id="linear-gradient-24" x1="46.6824" y1="113.156" x2="108.1846" y2="113.156" gradientTransform="matrix(1, 0, 0, 1, 0, 0)" xlink:href="#linear-gradient-4"/>
    <linearGradient id="linear-gradient-25" x1="70.9258" y1="119.7236" x2="84.2929" y2="106.3566" gradientTransform="matrix(1, 0, 0, 1, 0, 0)" xlink:href="#linear-gradient-3"/>
    <linearGradient id="linear-gradient-26" x1="65.6894" y1="139.4836" x2="88.2017" y2="139.4836" gradientTransform="matrix(1, 0, 0, 1, 0, 0)" xlink:href="#linear-gradient-4"/>
    <linearGradient id="linear-gradient-27" x1="71.3886" y1="143.1606" x2="81.0987" y2="133.4505" gradientTransform="matrix(1, 0, 0, 1, 0, 0)" xlink:href="#linear-gradient-3"/>
    <linearGradient id="linear-gradient-28" x1="1324.5479" y1="-2563.1144" x2="1328.8315" y2="-2563.1144" gradientTransform="translate(170.2037 2945.6814) rotate(-27.6575)" gradientUnits="userSpaceOnUse">
      <stop offset="0" stop-color="#2d3d54"/>
      <stop offset="0.4984" stop-color="#364254"/>
      <stop offset="1" stop-color="#3f5679"/>
    </linearGradient>
    <linearGradient id="linear-gradient-29" x1="320.8076" y1="-696.1857" x2="332.3957" y2="-696.1857" gradientTransform="translate(-91.8175 772.8756) rotate(-7.2398)" xlink:href="#linear-gradient-28"/>
    <linearGradient id="linear-gradient-30" x1="1322.8356" y1="-2568.5904" x2="1328.8315" y2="-2568.5904" xlink:href="#linear-gradient-28"/>
    <linearGradient id="linear-gradient-31" x1="77.9198" y1="40.4862" x2="112.4383" y2="5.9677" gradientUnits="userSpaceOnUse">
      <stop offset="0" stop-color="#141f36"/>
      <stop offset="0.4984" stop-color="#2d3d54"/>
      <stop offset="1" stop-color="#364254"/>
    </linearGradient>
    <linearGradient id="linear-gradient-32" x1="62.3031" y1="21.9043" x2="124.7008" y2="21.9043" gradientTransform="matrix(1, 0, 0, 1, 0, 0)" xlink:href="#linear-gradient-4"/>
    <linearGradient id="linear-gradient-33" x1="77.1879" y1="34.4472" x2="118.5131" y2="-6.878" gradientUnits="userSpaceOnUse">
      <stop offset="0" stop-color="#3f5679"/>
      <stop offset="0.5016" stop-color="#364254"/>
      <stop offset="1" stop-color="#2d3d54"/>
    </linearGradient>
    <linearGradient id="linear-gradient-34" x1="-33.9274" y1="1391.5041" x2="-24.9927" y2="1382.5694" gradientTransform="translate(1445.9319 99.6278) rotate(90)" xlink:href="#linear-gradient-3"/>
    <linearGradient id="linear-gradient-35" x1="96.9516" y1="60.3531" x2="105.8863" y2="51.4184" gradientTransform="translate(4.1153 19.6917)" xlink:href="#linear-gradient-3"/>
    <linearGradient id="linear-gradient-36" x1="-849.4711" y1="-1750.8249" x2="-831.3292" y2="-1768.9667" gradientTransform="translate(1383.8516 1598.843) rotate(-15.1606)" xlink:href="#linear-gradient-2"/>
    <linearGradient id="linear-gradient-37" x1="-837.191" y1="-1739.4833" x2="-828.3945" y2="-1748.2798" gradientTransform="translate(1383.8516 1598.843) rotate(-15.1606)" xlink:href="#linear-gradient"/>
    <linearGradient id="linear-gradient-38" x1="4914.3176" y1="-5043.8098" x2="4937.8068" y2="-5067.299" gradientTransform="matrix(-0.1678, 0.9858, 0.9858, 0.1678, 5952.0158, -3863.6029)" xlink:href="#linear-gradient-3"/>
    <linearGradient id="linear-gradient-39" x1="7249.9315" y1="7756.0237" x2="7255.1132" y2="7756.0237" gradientTransform="matrix(0.0742, -0.9972, -0.9972, -0.0742, 7325.9333, 7957.1057)" xlink:href="#linear-gradient-4"/>
    <linearGradient id="linear-gradient-40" x1="7243.1449" y1="7732.9009" x2="7265.2244" y2="7732.9009" gradientTransform="matrix(0.0742, -0.9972, -0.9972, -0.0742, 7325.9333, 7957.1057)" xlink:href="#linear-gradient-4"/>
    <linearGradient id="linear-gradient-41" x1="7590.3493" y1="-4862.8426" x2="7602.7174" y2="-4875.2106" gradientTransform="matrix(-0.551, 0.8345, 0.8345, 0.551, 8408.7497, -3503.712)" xlink:href="#linear-gradient-3"/>
    <linearGradient id="linear-gradient-42" x1="113.9881" y1="111.3152" x2="117.6651" y2="107.6382" gradientTransform="matrix(1, 0, 0, 1, 0, 0)" xlink:href="#linear-gradient-3"/>
  </defs>
  <g id="Camada_2" data-name="Camada 2">
    <g id="Infos">
      <g>
        <g>
          <line x1="44.1953" y1="126.1378" x2="32.1628" y2="138.5654" fill="none" stroke-linecap="round" stroke-linejoin="round" stroke-width="8.1146" stroke="url(#linear-gradient)"/>
          <g>
            <path d="M48.27,132.8171a12.8338,12.8338,0,1,1,12.3765-9.478A12.8612,12.8612,0,0,1,48.27,132.8171Z" fill="url(#linear-gradient-2)"/>
            <path d="M48.2557,107.6911A12.2913,12.2913,0,1,1,36.4012,116.77a12.3,12.3,0,0,1,11.8545-9.0786m.001-1.0819h0a13.3928,13.3928,0,1,0,3.5036.4684,13.3948,13.3948,0,0,0-3.5036-.4684Z" fill="#141f36"/>
          </g>
          <path d="M42.0176,133.8454s-2.748-.8693-6.0471-4.6366" fill="none" stroke="#141f36" stroke-linecap="round" stroke-linejoin="round" stroke-width="0.541"/>
          <path d="M39.3746,136.6287s-2.4454-.9554-5.823-4.8361" fill="none" stroke="#141f36" stroke-linecap="round" stroke-linejoin="round" stroke-width="0.541"/>
          <g>
            <path d="M21.6261,167.3528c-.12-.022-12.0708-2.3609-17.0239-16.5816a.5394.5394,0,0,1,.0888-.5161,89.4807,89.4807,0,0,1,19.565-17.2192.5427.5427,0,0,1,.2563-.083s.1695-.0108.4751-.0108c1.8184,0,11.0987.4395,15.2246,9.11a.54.54,0,0,1-.0522.5522l-18,24.5362a.54.54,0,0,1-.436.2212A.55.55,0,0,1,21.6261,167.3528Z" fill="url(#linear-gradient-3)"/>
            <path d="M24.9872,133.4832c2.0608,0,10.7876.5034,14.7366,8.8011L21.723,166.82S10.02,164.681,5.1127,150.5934a88.1059,88.1059,0,0,1,19.4321-17.1006s.1577-.01.4424-.01m0-1.082c-.3274,0-.5085.0116-.5085.0116a1.0973,1.0973,0,0,0-.5127.1657A88.2874,88.2874,0,0,0,4.2684,149.9167a1.0823,1.0823,0,0,0-.1775,1.0326c5.0562,14.5158,16.9344,16.8434,17.4375,16.9353a1.0813,1.0813,0,0,0,1.0669-.4243l18.0008-24.536a1.0823,1.0823,0,0,0,.1047-1.105c-4.2664-8.964-13.8379-9.4181-15.7134-9.4181Z" fill="#141f36"/>
          </g>
          <path d="M26.1482,161.9038s-5.7647-14.0716-17.0856-16.11" fill="none" stroke="#141f36" stroke-linecap="round" stroke-linejoin="round" stroke-width="0.541"/>
          <path d="M24.2343,163.6178s-6.207-13.7044-16.8205-15.8687" fill="none" stroke="#141f36" stroke-linecap="round" stroke-linejoin="round" stroke-width="0.541"/>
          <path d="M21.7231,166.82s-4.5073-13.1619-16.61-16.2269C5.1127,150.5934,8.8374,163.9383,21.7231,166.82Z" fill="url(#linear-gradient-4)"/>
          <path d="M10.1468,155.5781c-2.6336-.6637-5.225,1.6345-5.225,1.6345s-7.4315,6.1908-2.9363,6.6936c3.8732.4332,1.7635,4.4744-.762,8.196-2.3089,3.4024,15.852,4.9957,15.3281-10.5117C16.5516,161.5905,14.3075,156.6267,10.1468,155.5781Z" stroke="#141f36" stroke-linecap="round" stroke-linejoin="round" stroke-width="1.0819" fill="url(#linear-gradient-5)"/>
          <path d="M21.7231,166.82s-4.2736-13.9091-16.61-16.2269" fill="none" stroke="#141f36" stroke-linecap="round" stroke-linejoin="round" stroke-width="0.541"/>
          <path d="M51.7167,109.8812s-9.992-2.9848-14.4775,6.7325" fill="none" stroke="#fff" stroke-linecap="round" stroke-linejoin="round" stroke-width="0.541"/>
        </g>
        <g>
          <path d="M60.2308,160.9584c-5.4028-2.4605-13.8751,9.1557-8.7037,12.9556S65.8462,163.5158,60.2308,160.9584Z" stroke="#141f36" stroke-linecap="round" stroke-linejoin="round" stroke-width="0.541" fill="url(#linear-gradient-6)"/>
          <path d="M66.9332,161.5683c-1.8586-8.2911-20.1614,3.6317-18.8,26.0386S71.5417,182.1257,66.9332,161.5683Z" stroke="#141f36" stroke-linecap="round" stroke-linejoin="round" stroke-width="1.0819" fill="url(#linear-gradient-7)"/>
          <path d="M62.9423,159.0026s-18.4751,14.5506-11.3864,36.7113" fill="none" stroke="#141f36" stroke-linecap="round" stroke-linejoin="round" stroke-width="0.541"/>
          <g opacity="0.1">
            <path d="M50.261,193.969c.6625-14.3,11.3-26.697,15.718-31.2512.04.1185.0735.2448.1038.375C69.74,179.4086,55.4679,200.6494,50.261,193.969Z" fill="url(#linear-gradient-8)"/>
          </g>
        </g>
        <g>
          <path d="M76.5753,177.7629c-11.9975,0-21.0649-10.9336-26.2212-31.6191a161.6183,161.6183,0,0,1-4.2129-31.3286.5412.5412,0,0,1,.2954-.4927c.1255-.064,12.7242-6.37,30.8677-6.37a79.4873,79.4873,0,0,1,31.0908,6.3535.541.541,0,0,1,.33.5239,163.3507,163.3507,0,0,1-5.0737,31.3277C97.9288,166.8337,88.566,177.7629,76.5753,177.7629Z" fill="url(#linear-gradient-9)"/>
          <path d="M77.3043,108.4933a78.8906,78.8906,0,0,1,30.88,6.3113s-2.9424,62.4171-31.6091,62.4171-29.8934-62.4171-29.8934-62.4171,12.3982-6.3113,30.6221-6.3113m0-1.0819c-18.2732,0-30.5971,6.1665-31.1128,6.4289a1.0821,1.0821,0,0,0-.591.9855,162.2235,162.2235,0,0,0,4.2285,31.449c5.2236,20.9534,14.4724,32.0288,26.7466,32.0288,12.26,0,21.8027-11.0661,27.5974-32.0019a163.9956,163.9956,0,0,0,5.0925-31.4462,1.0821,1.0821,0,0,0-.66-1.0476,80.0213,80.0213,0,0,0-31.3015-6.3965Z" fill="#141f36"/>
        </g>
        <g opacity="0.1">
          <path d="M108.1848,114.804s-2.9429,62.4173-31.6089,62.4173a18.0671,18.0671,0,0,1-11.29-3.9058c4.75-10.6247,13.6-18.4039,17.7277-24.4844,8.4717-12.48,12.9941-32.534,12.9941-32.534a14.955,14.955,0,0,1,2.8023-4.7984A80.5091,80.5091,0,0,1,108.1848,114.804Z" fill="url(#linear-gradient-10)"/>
        </g>
        <g>
          <path d="M95.6215,168.39c-3.6542.7653-3.5993,29.1925,4.9374,37.4937S117.5207,163.8045,95.6215,168.39Z" stroke="#141f36" stroke-linecap="round" stroke-linejoin="round" stroke-width="1.0819" fill="url(#linear-gradient-11)"/>
          <path d="M97.2783,168.5116c-3.2557,7.2667-.1275,35.6646,7.9931,36.4317" fill="none" stroke="#141f36" stroke-linecap="round" stroke-linejoin="round" stroke-width="0.541"/>
          <path d="M102.5316,172.0719c-5.4912,2.0829-3.2285,16.125,3.0425,15.1373S108.2388,169.907,102.5316,172.0719Z" stroke="#141f36" stroke-linecap="round" stroke-linejoin="round" stroke-width="0.541" fill="url(#linear-gradient-12)"/>
        </g>
        <g>
          <g>
            <path d="M88.2081,107.93a92.426,92.426,0,0,1-9.5683-.5009,96.1745,96.1745,0,0,1-29.3633-7.9263A5.2126,5.2126,0,1,1,53.58,90.0071a84.5537,84.5537,0,0,0,34.6074,7.4985,79.5527,79.5527,0,0,0,15.0669-1.4389,5.2132,5.2132,0,0,1,1.979,10.2368A89.93,89.93,0,0,1,88.2081,107.93Z" fill="url(#linear-gradient-13)"/>
            <path d="M51.431,90.0825a4.6584,4.6584,0,0,1,1.9256.4174,85.6816,85.6816,0,0,0,34.8308,7.547,79.8058,79.8058,0,0,0,15.1689-1.4488,4.6719,4.6719,0,0,1,1.7737,9.1739,89.06,89.06,0,0,1-16.9241,1.6169,91.5311,91.5311,0,0,1-9.51-.4978A95.7192,95.7192,0,0,1,49.5,99.01a4.6723,4.6723,0,0,1,1.9314-8.9276m0-1.082a5.7542,5.7542,0,0,0-2.3779,10.9951,96.716,96.716,0,0,0,29.5305,7.9716,93.0217,93.0217,0,0,0,9.6223.5036,90.4555,90.4555,0,0,0,17.1294-1.6366,5.7538,5.7538,0,1,0-2.1843-11.2983,79.0262,79.0262,0,0,1-14.9636,1.429,84.0089,84.0089,0,0,1-34.3843-7.4505,5.712,5.712,0,0,0-2.3721-.5139Z" fill="#141f36"/>
          </g>
          <g>
            <g>
              <path d="M134.0236,73.906a3.1917,3.1917,0,0,1-.3267-.0171c-1.5483-.1616-2.8564-1.44-3.6826-3.6a16.3913,16.3913,0,0,1-.77-7.3711c.5855-5.605,3.2925-9.832,6.2969-9.832a3.19,3.19,0,0,1,.3262.0171c3.105.3247,5.0605,5.144,4.4521,10.9717-.5854,5.6049-3.2919,9.8315-6.2963,9.8315Z" fill="url(#linear-gradient-14)"/>
              <path d="M135.5414,53.627a2.6042,2.6042,0,0,1,.27.0141c2.7613.2883,4.5389,4.9343,3.97,10.3771-.55,5.2649-3.0935,9.3469-5.7586,9.3469a2.6075,2.6075,0,0,1-.27-.0141c-2.7609-.2884-4.5385-4.9344-3.97-10.3772.55-5.265,3.0938-9.3468,5.7586-9.3468m0-1.082c-3.282,0-6.22,4.4351-6.8347,10.3164-.64,6.13,1.5273,11.21,4.934,11.5657a3.6876,3.6876,0,0,0,.3826.02c3.2822,0,6.22-4.4351,6.8347-10.3164a16.9391,16.9391,0,0,0-.802-7.62c-.903-2.36-2.37-3.7611-4.1321-3.9452a3.6842,3.6842,0,0,0-.3825-.02Z" fill="#141f36"/>
            </g>
            <g>
              <path d="M130.7013,100.4587a.5408.5408,0,0,1-.5117-.3676l-8.9605-26.4849a.5411.5411,0,0,1,.5122-.7144.5622.5622,0,0,1,.1172.0127l10.7544,2.3907a.5408.5408,0,0,1,.4194.46l2.9292,22.9927a.5409.5409,0,0,1-.4135.5952l-4.7232,1.1016A.5393.5393,0,0,1,130.7013,100.4587Z" fill="url(#linear-gradient-15)"/>
              <path d="M121.7413,73.433l10.7544,2.3907,2.9292,22.9925-4.7231,1.1014-8.96-26.4846m0-1.082a1.0821,1.0821,0,0,0-1.0249,1.4287l8.96,26.4846a1.0811,1.0811,0,0,0,1.27.707l4.7231-1.1014a1.0821,1.0821,0,0,0,.8277-1.19L133.569,75.687a1.0819,1.0819,0,0,0-.8384-.9195l-10.7544-2.3907a1.085,1.085,0,0,0-.2349-.0258Z" fill="#141f36"/>
            </g>
            <g>
              <path d="M125.8473,75.6731a.5414.5414,0,0,1-.4849-.5244c-.019-.76-.4341-18.6778,2.5982-24.5625a.54.54,0,0,1,.4809-.2935c.0186,0,6.6485.6914,6.6485.6914a.5414.5414,0,0,1,.4839.5074c.0078.1406.76,14.1572-2.563,24.4975a.5415.5415,0,0,1-.5147.3755C132.4772,76.3645,125.8473,75.6731,125.8473,75.6731Z" fill="url(#linear-gradient-16)"/>
              <path d="M128.4418,50.8338l6.592.6885s.7925,13.9367-2.5381,24.3014l-6.592-.6886s-.4661-18.4718,2.5381-24.3013m0-1.082a1.0819,1.0819,0,0,0-.9614.5864c-3.0955,6.0066-2.6772,24.0587-2.658,24.8242a1.0818,1.0818,0,0,0,.9693,1.0488l6.592.6886a1.1056,1.1056,0,0,0,.1131.0058,1.0819,1.0819,0,0,0,1.0293-.7509c3.3535-10.4362,2.621-24.1166,2.5883-24.6938a1.0821,1.0821,0,0,0-.968-1.0147l-6.592-.6885a1.0918,1.0918,0,0,0-.1126-.0059Z" fill="#141f36"/>
            </g>
            <path d="M132.2277,51.2292s1.487,9.1462-2.5044,23.9781" fill="none" stroke="#141f36" stroke-linecap="round" stroke-linejoin="round" stroke-width="0.541"/>
            <line x1="125.8611" y1="85.6098" x2="133.6047" y2="84.5288" fill="none" stroke="#141f36" stroke-linecap="round" stroke-linejoin="round" stroke-width="0.541"/>
            <line x1="127.0513" y1="89.1276" x2="134.1023" y2="88.4351" fill="none" stroke="#141f36" stroke-linecap="round" stroke-linejoin="round" stroke-width="0.541"/>
          </g>
          <g>
            <g>
              <path d="M30.817,63.1267A3.1883,3.1883,0,0,1,30.49,63.11c-1.5484-.1616-2.8565-1.44-3.6832-3.6a16.3916,16.3916,0,0,1-.769-7.3711c.5855-5.605,3.2925-9.832,6.2969-9.832a3.19,3.19,0,0,1,.3262.0171c3.1049.3247,5.0605,5.144,4.4521,10.9717C36.5275,58.9,33.8209,63.1267,30.817,63.1267Z" fill="url(#linear-gradient-17)"/>
              <path d="M32.3346,42.8477a2.6075,2.6075,0,0,1,.27.0141c2.7612.2884,4.5388,4.9344,3.97,10.3771-.55,5.2647-3.0938,9.3469-5.7586,9.3469a2.5768,2.5768,0,0,1-.27-.0141c-2.761-.2884-4.5386-4.9344-3.97-10.3771.55-5.2647,3.094-9.3465,5.7586-9.3469m0-1.0819h0c-3.2822.0005-6.2207,4.4356-6.8352,10.3164-.64,6.13,1.5273,11.21,4.9341,11.5656a3.6914,3.6914,0,0,0,.3825.02c3.2823,0,6.22-4.4351,6.8347-10.3164a16.9385,16.9385,0,0,0-.802-7.62c-.903-2.36-2.37-3.7612-4.132-3.9452a3.6809,3.6809,0,0,0-.3821-.02Z" fill="#141f36"/>
            </g>
            <g>
              <path d="M28.0416,89.7366a.5432.5432,0,0,1-.2285-.0508L23.42,87.6321a.5409.5409,0,0,1-.2818-.668L30.755,65.073A.5409.5409,0,0,1,31.26,64.71l11.022-.1167a.5405.5405,0,0,1,.4653.8164l-14.24,24.0615A.54.54,0,0,1,28.0416,89.7366Z" fill="url(#linear-gradient-18)"/>
              <path d="M42.2819,65.134h.0048m-.0048,0-14.24,24.0615L23.6488,87.142l7.6169-21.8911,11.0162-.1169m0-1.0819h-.0125l-11.0151.1168a1.0824,1.0824,0,0,0-1.0105.7264L22.6271,86.7864a1.0818,1.0818,0,0,0,.5634,1.3357l4.3934,2.0536a1.0817,1.0817,0,0,0,1.3894-.4292l14.21-24.0118a1.0811,1.0811,0,0,0-.8968-1.6826h-.0048Zm0,2.1638h0Z" fill="#141f36"/>
            </g>
            <g>
              <path d="M31.21,65.7888a.5414.5414,0,0,1-.4819-.4824c-1.1148-10.8042,2.517-24.3628,2.5542-24.4985a.5405.5405,0,0,1,.5214-.3995c.0191,0,6.649.6915,6.649.6915a.5409.5409,0,0,1,.4653.395c1.751,6.3847-2.3579,23.83-2.5337,24.5693a.5412.5412,0,0,1-.5259.416C37.84,66.48,31.21,65.7888,31.21,65.7888Z" fill="url(#linear-gradient-19)"/>
              <path d="M33.8038,40.95l6.5921.6885c1.7348,6.3245-2.5381,24.3013-2.5381,24.3013l-6.5921-.6884C30.1486,54.4218,33.8038,40.95,33.8038,40.95m-.0007-1.0819a1.0819,1.0819,0,0,0-1.0435.7986c-.1513.558-3.695,13.7918-2.57,24.6957a1.0819,1.0819,0,0,0,.9638.9651l6.5921.6884a1.0814,1.0814,0,0,0,1.165-.8259c.177-.745,4.3164-18.3212,2.5288-24.8377a1.0818,1.0818,0,0,0-.9311-.79l-6.5921-.6885a1.0745,1.0745,0,0,0-.113-.0058Z" fill="#141f36"/>
            </g>
            <path d="M36.61,41.2426s-3.3448,8.6416-2.5043,23.9781" fill="none" stroke="#141f36" stroke-linecap="round" stroke-linejoin="round" stroke-width="0.541"/>
            <line x1="35.7349" y1="76.1967" x2="28.3819" y2="73.5389" fill="none" stroke="#141f36" stroke-linecap="round" stroke-linejoin="round" stroke-width="0.541"/>
            <line x1="33.8435" y1="79.3927" x2="27.0878" y2="77.2582" fill="none" stroke="#141f36" stroke-linecap="round" stroke-linejoin="round" stroke-width="0.541"/>
          </g>
          <g>
            <path d="M86.609,103.8313A77.3406,77.3406,0,0,1,42.2565,89.7947a.5538.5538,0,0,1-.1475-.1817c-6.8564-13.7036-8.0947-37.353,1.7022-53.2094,7.3554-11.9053,19.9926-18.1983,36.5454-18.1983a76.51,76.51,0,0,1,8.56.5034c18.5215,2.0982,30.8443,8.9629,36.6255,20.4038,11.76,23.274-7.9062,57.9488-8.1064,58.2964a.54.54,0,0,1-.2637.23,80.4062,80.4062,0,0,1-30.5591,6.1919Z" fill="url(#linear-gradient-20)"/>
            <path d="M80.3566,18.7462a75.6246,75.6246,0,0,1,8.499.5c68.479,7.7564,28.1113,77.8925,28.1113,77.8925a79.5821,79.5821,0,0,1-30.3579,6.1518c-26.4871,0-44.0159-13.92-44.0159-13.92C32.1012,68.4026,33.369,18.7462,80.3566,18.7462m0-1.082c-16.75,0-29.5467,6.3817-37.0059,18.4551-9.896,16.0172-8.6482,39.9-1.7251,53.7357a1.0815,1.0815,0,0,0,.2947.3632c.1782.1415,18.1313,14.1543,44.6887,14.1543A80.9546,80.9546,0,0,0,117.3768,98.14a1.082,1.082,0,0,0,.5279-.4616A109.2226,109.2226,0,0,0,126.46,77.2922c4.6531-15.3642,4.5027-28.6508-.4355-38.4235-5.8687-11.6142-18.3333-18.5779-37.0474-20.6976a77.0275,77.0275,0,0,0-8.6208-.5069Z" fill="#141f36"/>
          </g>
          <g opacity="0.8">
            <path d="M115.01,91.5845c-.5673.2432-1.1261.4786-1.6917.7047-32.37,13.1319-59.99-2.6451-66.6173-6.9664-.9934-.6394-1.5105-1.03-1.5105-1.03S32.7217,36.5454,84.895,41.9945,115.01,91.5845,115.01,91.5845Z" fill="url(#linear-gradient-21)"/>
          </g>
          <g>
            <path d="M87.34,97.948c-20.6529,0-36.5562-9.3154-40.9385-12.1709a.5394.5394,0,0,1-.2363-.355c-1.2876-6.97-3.7359-30.1645,18.812-36.0083a46.8012,46.8012,0,0,1,11.645-1.34,73.5478,73.5478,0,0,1,7.5967.417c13.9565,1.4575,23.6386,5.9316,28.7768,13.2968,5.5244,7.919,4.6587,17.5621,2.96,24.2569a49.0017,49.0017,0,0,1-2.1358,6.4511.5412.5412,0,0,1-.2968.295A69.3733,69.3733,0,0,1,87.34,97.948Z" fill="url(#linear-gradient-22)"/>
            <path d="M76.6224,48.6147a72.6458,72.6458,0,0,1,7.54.4142c34.563,3.61,34.3264,24.8309,31.2683,36.8832a48.4017,48.4017,0,0,1-2.1113,6.3772A68.64,68.64,0,0,1,87.34,97.407,77.407,77.407,0,0,1,46.6967,85.3238C45.3905,78.25,43.0531,55.6545,65.1129,49.9371a46.0025,46.0025,0,0,1,11.51-1.3224m.0008-1.0819h0A47.3555,47.3555,0,0,0,64.8422,48.89c-23,5.961-20.5179,29.5446-19.21,36.6308a1.0814,1.0814,0,0,0,.4734.71C50.52,89.1061,66.538,98.489,87.34,98.489a69.9054,69.9054,0,0,0,26.3864-5.1971,1.0815,1.0815,0,0,0,.5933-.59,49.4492,49.4492,0,0,0,2.1594-6.5221c1.7273-6.8067,2.6013-16.6156-3.04-24.7021-5.2321-7.5-15.0444-12.0506-29.1643-13.5253a74.1232,74.1232,0,0,0-7.6518-.42Z" fill="#141f36"/>
          </g>
          <path d="M115.4311,85.9121c-42.5189.054-49.5231-23.73-50.3182-35.9751,4.9983-1.2918,11.2509-1.7227,19.05-.9081C118.7256,52.6387,118.4893,73.86,115.4311,85.9121Z" fill="#141f36" opacity="0.7"/>
          <g>
            <path d="M55.0055,25.5312s-.8385,10.8567,3.3555,9.4735A69.806,69.806,0,0,1,87.9054,32.178" fill="none" stroke="#141f36" stroke-linecap="round" stroke-linejoin="round" stroke-width="0.541"/>
            <path d="M121.4686,32.4729s-1.4229,10.7956-5.2406,8.5756a69.8074,69.8074,0,0,0-28.3226-8.87" fill="none" stroke="#141f36" stroke-linecap="round" stroke-linejoin="round" stroke-width="0.541"/>
          </g>
          <ellipse cx="123.7634" cy="44.1681" rx="1.0289" ry="2.0578" transform="translate(-7.2583 54.2433) rotate(-24.0375)" stroke-width="0.541" stroke="#141f36" stroke-linecap="round" stroke-linejoin="round" fill="none"/>
          <ellipse cx="47.8321" cy="36.2376" rx="2.0578" ry="1.0289" transform="translate(-9.5884 53.6722) rotate(-54.0375)" stroke-width="0.541" stroke="#141f36" stroke-linecap="round" stroke-linejoin="round" fill="none"/>
        </g>
        <g opacity="0.8">
          <path d="M99.4228,156.8791c-4.7077,11.2409-11.9095,20.34-22.8486,20.34C76.5742,177.2193,76.7539,155.1613,99.4228,156.8791Z" fill="url(#linear-gradient-23)"/>
        </g>
        <path d="M108.1846,114.8042c-41.3345,6.7849-61.5022,0-61.5022,0S74.5765,100.6021,108.1846,114.8042Z" fill="url(#linear-gradient-24)"/>
        <path d="M99.4228,156.8791c-4.7077,11.2409-11.9095,20.34-22.8486,20.34C76.5742,177.2193,76.7539,155.1613,99.4228,156.8791Z" fill="none" stroke="#141f36" stroke-linecap="round" stroke-linejoin="round" stroke-width="0.541"/>
        <line x1="81.5319" y1="146.6658" x2="86.3884" y2="159.2786" fill="none" stroke="#141f36" stroke-linecap="round" stroke-linejoin="round" stroke-width="0.541"/>
        <path d="M46.6824,114.8042s19.0188,6.7108,61.5022,0" fill="none" stroke="#141f36" stroke-linecap="round" stroke-linejoin="round" stroke-width="0.541"/>
        <path d="M90.8606,112.9243c-11.9375-4.0049-26.5025.2317-26.5025.2317S78.3,117.934,90.8606,112.9243Z" stroke="#141f36" stroke-linecap="round" stroke-linejoin="round" stroke-width="1.0819" fill="url(#linear-gradient-25)"/>
        <path d="M81.5284,146.5842s2.7563-3.5774,6.6733-14.6459c-9.5232-1.3584-14.7759,1.7571-14.7759,1.7571a47.4166,47.4166,0,0,0-7.7364,13.1284S75.5628,148.2037,81.5284,146.5842Z" fill="url(#linear-gradient-26)"/>
        <path d="M50.5057,144.47s16.7437,4.2742,31.0262,2.1959a142.7767,142.7767,0,0,0,11.62-29.8617" fill="none" stroke="#141f36" stroke-linecap="round" stroke-linejoin="round" stroke-width="0.541"/>
        <circle cx="76.2437" cy="138.3055" r="6.8661" stroke="#141f36" stroke-linecap="round" stroke-linejoin="round" stroke-width="0.541" fill="url(#linear-gradient-27)"/>
        <line x1="47.5844" y1="114.3818" x2="64.3581" y2="113.156" fill="none" stroke="#141f36" stroke-linecap="round" stroke-linejoin="round" stroke-width="0.541"/>
        <line x1="90.8606" y1="112.9243" x2="107.1572" y2="114.3818" fill="none" stroke="#141f36" stroke-linecap="round" stroke-linejoin="round" stroke-width="0.541"/>
        <path d="M48.373,117.2458s1.5714,21.1508,3.3437,25.6117" fill="none" stroke="#fff" stroke-linecap="round" stroke-linejoin="round" stroke-width="0.541"/>
        <path d="M53.4808,147.2357S56.1853,161.64,64.236,169.7333" fill="none" stroke="#fff" stroke-linecap="round" stroke-linejoin="round" stroke-width="0.541"/>
        <path d="M53.34,27.8266s-12.53,8.411-14.4965,30.6118A61.14,61.14,0,0,0,43.8866,88.79" fill="none" stroke="#fff" stroke-linecap="round" stroke-linejoin="round" stroke-width="0.541"/>
        <path d="M31.0534,43.8934s-6.43,6.8338-1.7031,17.1249" fill="none" stroke="#fff" stroke-linecap="round" stroke-linejoin="round" stroke-width="0.541"/>
        <path d="M56.4759,25.5312s17.573-10.9241,45.9466-2.7022" fill="none" stroke="#fff" stroke-linecap="round" stroke-linejoin="round" stroke-width="0.541"/>
        <g>
          <g>
            <path d="M157.74,60.343a18.2869,18.2869,0,0,0-5.5788-3.7479s3.2992,4.3642,3.9319,7.5027" fill="none" stroke-linecap="round" stroke-linejoin="round" stroke-width="1.0819" stroke="url(#linear-gradient-28)"/>
            <path d="M137.2573,25.9757s1.1718,17.6883,14.402,30.208" fill="none" stroke-linecap="round" stroke-linejoin="round" stroke-width="1.0819" stroke="url(#linear-gradient-29)"/>
            <path d="M150.9752,54.7936c-1.9633,1.2513-.1674,3.3575,1.1859,1.8015s-.2134-3.7634-.6954-2.43-.3429,3.484,3.6105,1.0955" fill="none" stroke-linecap="round" stroke-linejoin="round" stroke-width="1.0819" stroke="url(#linear-gradient-30)"/>
          </g>
          <g>
            <path d="M106.1984,39.98c-26.1861-.0019-46.5694-17.8086-46.772-17.9882a.5412.5412,0,0,1-.11-.6744l7.5581-13.146A.5406.5406,0,0,1,67.3434,7.9a.5693.5693,0,0,1,.0981.0087l57.3574,10.5547a.5413.5413,0,0,1,.4429.5323V36.3269a.5411.5411,0,0,1-.3638.5112A56.8749,56.8749,0,0,1,106.2037,39.98Z" fill="url(#linear-gradient-31)"/>
            <path d="M67.3436,8.4409l57.3572,10.5543V36.327a56.1341,56.1341,0,0,1-18.5024,3.112c-26.2837,0-46.4131-17.8524-46.4131-17.8524L67.3436,8.4409m0-1.082a1.0823,1.0823,0,0,0-.9378.5427L58.8473,21.0473a1.0818,1.0818,0,0,0,.22,1.3488c.2043.1812,20.7417,18.1248,47.1309,18.1248a57.4224,57.4224,0,0,0,18.8569-3.1717,1.0819,1.0819,0,0,0,.7275-1.0222V18.9952a1.082,1.082,0,0,0-.8862-1.0641L67.5394,7.3768a1.0868,1.0868,0,0,0-.196-.0179Z" fill="#141f36"/>
          </g>
          <g opacity="0.4">
            <path d="M124.7008,18.9975V33.3457c-36.5413,8.8481-59.809-14.0624-62.3977-16.14l5.04-8.7664Z" fill="url(#linear-gradient-32)"/>
          </g>
          <g>
            <path d="M98.5494,32.2195a.5369.5369,0,0,1-.2646-.0694L45.1232,2.3538A.5409.5409,0,0,1,45.38,1.3411l55.5166-.8a.5453.5453,0,0,1,.2412.0566l49.4165,24.6055a.5413.5413,0,0,1-.1792,1.022L98.6114,32.2161C98.5909,32.218,98.57,32.2195,98.5494,32.2195Z" fill="url(#linear-gradient-33)"/>
            <path d="M100.8964,1.0819l49.4167,24.6052L98.5494,31.6786,45.3881,1.8821l55.5083-.8m0-1.0819h-.0157L45.3724.8a1.0819,1.0819,0,0,0-.5134,2.0256L98.02,32.6224a1.0813,1.0813,0,0,0,.6535.131l51.7637-5.9916a1.0819,1.0819,0,0,0,.3577-2.0432L101.3785.1134A1.082,1.082,0,0,0,100.8964,0Z" fill="#141f36"/>
          </g>
          <path d="M61.24,19.0559s25.7891,25.8465,63.4605,15.6077" fill="none" stroke="#141f36" stroke-linecap="round" stroke-linejoin="round" stroke-width="0.541"/>
          <g opacity="0.2">
            <polygon points="150.246 25.686 123.298 28.803 86.101 1.294 100.83 1.08 150.246 25.686" fill="#141f36"/>
          </g>
          <g>
            <path d="M100.943,15.6912a4.28,4.28,0,0,1-.57-.0381c-1.2993-.1773-1.3521-.8965-1.3374-1.1128.0464-.6875.8906-1.1494,2.1006-1.1494a5.9045,5.9045,0,0,1,1.0493.1c1.0371.188,1.1474.7085,1.1211,1.0019-.07.7783-1.27,1.1983-2.3638,1.1983Z" fill="#141f36"/>
            <path d="M101.1364,13.932a5.37,5.37,0,0,1,.9523.0911c1.4612.2649.3289,1.1272-1.1457,1.1272a3.6889,3.6889,0,0,1-.4966-.0333c-1.4485-.1974-1.0056-1.185.69-1.185m0-1.0819c-1.8663,0-2.5889.8908-2.6407,1.6536-.0161.2381-.0051,1.4386,1.8045,1.6853a4.7732,4.7732,0,0,0,.6428.0432c1.3669,0,2.803-.5808,2.9028-1.691.0269-.3-.0063-1.3-1.5642-1.5826a6.4527,6.4527,0,0,0-1.1452-.1085Z" fill="#141f36"/>
          </g>
          <line x1="103.8005" y1="15.1503" x2="136.5224" y2="21.9855" fill="none" stroke="#141f36" stroke-linecap="round" stroke-linejoin="round" stroke-width="1.0819"/>
        </g>
        <ellipse cx="58.8951" cy="70.1677" rx="7.0904" ry="5.4356" transform="translate(-21.8227 113.4895) rotate(-78.2144)" fill="url(#linear-gradient-34)"/>
        <ellipse cx="105.5343" cy="75.5775" rx="5.4356" ry="7.0904" fill="url(#linear-gradient-35)"/>
        <g>
          <g>
            <path d="M112.4357,132.8171a12.7948,12.7948,0,1,1,.0009,0Z" fill="url(#linear-gradient-36)"/>
            <path d="M112.45,107.6911a12.3,12.3,0,1,1-3.2215.4308,12.2955,12.2955,0,0,1,3.2215-.4308m0-1.0819a13.3743,13.3743,0,1,0,12.8987,9.8775,13.4057,13.4057,0,0,0-12.8987-9.8775Z" fill="#141f36"/>
          </g>
          <line x1="119.4042" y1="128.3365" x2="128.543" y2="138.5654" fill="none" stroke-linecap="round" stroke-linejoin="round" stroke-width="8.1146" stroke="url(#linear-gradient-37)"/>
          <path d="M119.85,134.5959s2.5632-.9977,5.9408-4.8784" fill="none" stroke="#141f36" stroke-linecap="round" stroke-linejoin="round" stroke-width="0.541"/>
          <path d="M117.3634,131.7271s2.7481-.8692,6.0471-4.6365" fill="none" stroke="#141f36" stroke-linecap="round" stroke-linejoin="round" stroke-width="0.541"/>
          <g>
            <path d="M148.2018,160.3347a.5432.5432,0,0,1-.2735-.0742L121.671,144.8792a.5406.5406,0,0,1-.2671-.4864c.3882-10.6938,10.6983-14.5434,10.8023-14.581a.5408.5408,0,0,1,.1841-.0323.5345.5345,0,0,1,.0839.0069,89.4974,89.4974,0,0,1,24.7911,8.0444.5415.5415,0,0,1,.2861.4385c1.0947,15.019-8.9478,21.9067-9.0493,21.9741A.54.54,0,0,1,148.2018,160.3347Z" fill="url(#linear-gradient-38)"/>
            <path d="M132.39,130.32a88.1071,88.1071,0,0,1,24.6215,7.9885c1.0845,14.8783-8.81,21.4849-8.81,21.4849l-26.2573-15.3816C122.3239,133.96,132.39,130.32,132.39,130.32m0-1.0819a1.08,1.08,0,0,0-.368.0645c-.1074.0389-10.7578,4.0156-11.1591,15.07a1.0821,1.0821,0,0,0,.5344.9728l26.2573,15.3817a1.0824,1.0824,0,0,0,1.1477-.0338c.4253-.2841,10.4058-7.1328,9.2883-22.4634a1.0821,1.0821,0,0,0-.5725-.8774,88.2845,88.2845,0,0,0-24.96-8.1011,1.0838,1.0838,0,0,0-.1684-.0132Z" fill="#141f36"/>
          </g>
          <path d="M142.1894,157.0362s-.2907-15.2038,9.2925-21.5664" fill="none" stroke="#141f36" stroke-linecap="round" stroke-linejoin="round" stroke-width="0.541"/>
          <path d="M144.6262,157.85s.261-15.0423,9.145-21.2394" fill="none" stroke="#141f36" stroke-linecap="round" stroke-linejoin="round" stroke-width="0.541"/>
          <path d="M134.5613,151.9734s-.8465-6.1945-10.1055-5.8253Z" stroke="#141f36" stroke-miterlimit="10" stroke-width="0.541" fill="url(#linear-gradient-39)"/>
          <path d="M148.2018,159.7938s-1.084-13.87,8.81-21.4849C157.0119,138.3089,158.8868,152.0365,148.2018,159.7938Z" fill="url(#linear-gradient-40)"/>
          <path d="M154.3683,144.8817c2.1542-1.654,5.4447-.5725,5.4447-.5725s9.2776,2.7347,5.3507,4.98c-3.3835,1.9342.1563,4.8069,3.951,7.2212,3.4691,2.2073-12.57,10.8744-18.24-3.5683C150.8743,152.9416,150.965,147.4948,154.3683,144.8817Z" stroke="#141f36" stroke-linecap="round" stroke-linejoin="round" stroke-width="1.0819" fill="url(#linear-gradient-41)"/>
          <path d="M148.2018,159.7938s-1.595-14.4631,8.81-21.4849" fill="none" stroke="#141f36" stroke-linecap="round" stroke-linejoin="round" stroke-width="0.541"/>
          <path d="M110.5189,107.846s5.5171,3.0475,10.52,3.3565A9.1328,9.1328,0,0,0,110.5189,107.846Z" stroke="#141f36" stroke-linecap="round" stroke-linejoin="round" stroke-width="0.541" fill="url(#linear-gradient-42)"/>
          <path d="M117.4316,132.1253l-1.2287-1.3027a3.8418,3.8418,0,0,1,.2073-5.2553,4.0775,4.0775,0,0,1,5.6993-.2812c.4145.4293,1.5248,1.6284,1.5248,1.6284" fill="none" stroke="#141f36" stroke-linecap="round" stroke-linejoin="round" stroke-width="0.541"/>
        </g>
      </g>
    </g>
  </g>
</svg>
