<svg xmlns="http://www.w3.org/2000/svg" xmlns:xlink="http://www.w3.org/1999/xlink" width="132.3658" height="202.7684" viewBox="0 0 132.3658 202.7684">
  <defs>
    <linearGradient id="linear-gradient" x1="10119.2006" y1="-4286.3878" x2="10137.3371" y2="-4304.5243" gradientTransform="matrix(-0.6575, 0.7534, 0.7534, 0.6575, 9925.3766, -4703.8452)" gradientUnits="userSpaceOnUse">
      <stop offset="0" stop-color="#fff"/>
      <stop offset="1" stop-color="#b9b9bd"/>
    </linearGradient>
    <linearGradient id="linear-gradient-2" x1="29.5192" y1="54.7699" x2="39.0033" y2="45.2859" gradientTransform="translate(16.7841 119.8735) rotate(-1.2373)" gradientUnits="userSpaceOnUse">
      <stop offset="0" stop-color="#2d6cea"/>
      <stop offset="0.4984" stop-color="#2eaade"/>
      <stop offset="1" stop-color="#00dfe5"/>
    </linearGradient>
    <linearGradient id="linear-gradient-3" x1="-132.9347" y1="760.2074" x2="-117.8134" y2="745.0861" gradientTransform="matrix(0.9951, 0.0989, -0.0989, 0.9951, 258.3813, -560.2774)" gradientUnits="userSpaceOnUse">
      <stop offset="0" stop-color="#fff"/>
      <stop offset="1" stop-color="#f2e7e5"/>
    </linearGradient>
    <linearGradient id="linear-gradient-4" x1="-100.0199" y1="980.8988" x2="-100.0199" y2="946.7067" gradientTransform="translate(274.0065 -768.4388) rotate(6.697)" gradientUnits="userSpaceOnUse">
      <stop offset="0" stop-color="#141f36"/>
      <stop offset="1" stop-color="#b9b9bd"/>
    </linearGradient>
    <linearGradient id="linear-gradient-5" x1="37.8178" y1="142.7406" x2="89.3856" y2="91.1727" gradientTransform="matrix(1, 0, 0, 1, 0, 0)" xlink:href="#linear-gradient"/>
    <linearGradient id="linear-gradient-6" x1="73.2912" y1="159.7093" x2="73.2912" y2="93.9868" gradientTransform="matrix(1, 0, 0, 1, 0, 0)" xlink:href="#linear-gradient-4"/>
    <linearGradient id="linear-gradient-7" x1="259.4447" y1="-806.6985" x2="323.0694" y2="-806.6985" gradientTransform="translate(-129.5629 918.7176) rotate(-6.9698)" gradientUnits="userSpaceOnUse">
      <stop offset="0" stop-color="#f2e7e5"/>
      <stop offset="1" stop-color="#b9b9bd"/>
    </linearGradient>
    <linearGradient id="linear-gradient-8" x1="338.3736" y1="-842.7897" x2="350.254" y2="-854.6701" xlink:href="#linear-gradient-7"/>
    <linearGradient id="linear-gradient-9" x1="335.1372" y1="-820.2178" x2="347.618" y2="-832.6985" gradientTransform="translate(-129.5629 918.7176) rotate(-6.9698)" xlink:href="#linear-gradient-2"/>
    <linearGradient id="linear-gradient-10" x1="331.8584" y1="-840.3002" x2="348.1542" y2="-856.5961" gradientTransform="translate(-129.5629 918.7176) rotate(-6.9698)" xlink:href="#linear-gradient-2"/>
    <linearGradient id="linear-gradient-11" x1="11276.3209" y1="-842.7893" x2="11288.2018" y2="-854.6702" gradientTransform="matrix(-0.9926, 0.1213, 0.1213, 0.9926, 11308.0942, -479.5251)" xlink:href="#linear-gradient-7"/>
    <linearGradient id="linear-gradient-12" x1="11273.0841" y1="-820.2177" x2="11285.5653" y2="-832.6988" gradientTransform="matrix(-0.9926, 0.1213, 0.1213, 0.9926, 11308.0942, -479.5251)" xlink:href="#linear-gradient-2"/>
    <linearGradient id="linear-gradient-13" x1="11269.8056" y1="-840.3003" x2="11286.1015" y2="-856.5961" gradientTransform="matrix(-0.9926, 0.1213, 0.1213, 0.9926, 11308.0942, -479.5251)" xlink:href="#linear-gradient-2"/>
    <linearGradient id="linear-gradient-14" x1="258.8004" y1="-809.1644" x2="327.6139" y2="-877.9779" xlink:href="#linear-gradient-7"/>
    <linearGradient id="linear-gradient-15" x1="292.4655" y1="-809.6958" x2="292.4655" y2="-864.9327" gradientTransform="translate(-129.5629 918.7176) rotate(-6.9698)" xlink:href="#linear-gradient-4"/>
    <linearGradient id="linear-gradient-16" x1="268.8068" y1="-807.2705" x2="316.1268" y2="-854.5904" gradientTransform="translate(-129.5629 918.7176) rotate(-6.9698)" gradientUnits="userSpaceOnUse">
      <stop offset="0" stop-color="#141f36"/>
      <stop offset="1" stop-color="#2d3d54"/>
    </linearGradient>
    <linearGradient id="linear-gradient-17" x1="62.827" y1="159.4042" x2="84.4214" y2="137.8097" gradientTransform="matrix(1, 0, 0, 1, 0, 0)" xlink:href="#linear-gradient-4"/>
    <linearGradient id="linear-gradient-18" x1="33.2383" y1="95.644" x2="94.7406" y2="95.644" gradientTransform="matrix(1, 0, 0, 1, 0, 0)" xlink:href="#linear-gradient-16"/>
    <linearGradient id="linear-gradient-19" x1="57.4818" y1="102.2117" x2="70.8488" y2="88.8446" gradientTransform="matrix(1, 0, 0, 1, 0, 0)" xlink:href="#linear-gradient-2"/>
    <linearGradient id="linear-gradient-20" x1="52.2454" y1="121.9716" x2="74.7577" y2="121.9716" gradientTransform="matrix(1, 0, 0, 1, 0, 0)" xlink:href="#linear-gradient-16"/>
    <linearGradient id="linear-gradient-21" x1="57.9446" y1="125.6486" x2="67.6547" y2="115.9385" gradientTransform="matrix(1, 0, 0, 1, 0, 0)" xlink:href="#linear-gradient-2"/>
    <linearGradient id="linear-gradient-22" x1="-151.1489" y1="1389.8309" x2="-137.2768" y2="1375.9588" gradientTransform="translate(1421.7301 201.2262) rotate(90)" xlink:href="#linear-gradient-2"/>
    <linearGradient id="linear-gradient-23" x1="1247.1109" y1="-2576.5669" x2="1260.983" y2="-2590.439" gradientTransform="translate(-1174.0353 2635.8947)" xlink:href="#linear-gradient-2"/>
    <linearGradient id="linear-gradient-24" x1="10131.4727" y1="-4279.0985" x2="10140.693" y2="-4288.3189" gradientTransform="matrix(-0.6575, 0.7534, 0.7534, 0.6575, 9925.3766, -4703.8452)" xlink:href="#linear-gradient-4"/>
    <linearGradient id="linear-gradient-25" x1="9072.8342" y1="-4964.7209" x2="9096.2171" y2="-4988.1039" gradientTransform="translate(5710.4388 8793.4068) rotate(-94.4191)" xlink:href="#linear-gradient-2"/>
    <linearGradient id="linear-gradient-26" x1="12774.3228" y1="-1967.6964" x2="12782.4945" y2="-1975.8681" gradientTransform="matrix(-0.9453, 0.3261, 0.3261, 0.9453, 12768.3336, -2193.767)" xlink:href="#linear-gradient-16"/>
    <linearGradient id="linear-gradient-27" x1="48.6155" y1="116.6812" x2="58.563" y2="106.7337" gradientTransform="matrix(1, 0, 0, 1, 0, 0)" xlink:href="#linear-gradient-2"/>
    <linearGradient id="linear-gradient-28" x1="2037.9996" y1="-3278.6996" x2="2045.7503" y2="-3286.4504" gradientTransform="translate(160.8593 3977.4302) rotate(-33.1662)" xlink:href="#linear-gradient-2"/>
    <linearGradient id="linear-gradient-29" x1="3422.6066" y1="7962.7826" x2="3431.7336" y2="7953.6556" gradientTransform="matrix(0.2768, 0.9609, -0.9609, 0.2768, 6784.3865, -5378.0732)" xlink:href="#linear-gradient-4"/>
    <linearGradient id="linear-gradient-30" x1="3411.5987" y1="7952.7169" x2="3429.7396" y2="7934.5759" gradientTransform="matrix(0.2768, 0.9609, -0.9609, 0.2768, 6784.3865, -5378.0732)" xlink:href="#linear-gradient"/>
    <linearGradient id="linear-gradient-31" x1="3420.1683" y1="7946.5409" x2="3430.914" y2="7935.7953" gradientTransform="matrix(0.2768, 0.9609, -0.9609, 0.2768, 6784.3865, -5378.0732)" xlink:href="#linear-gradient-2"/>
    <linearGradient id="linear-gradient-32" x1="6716.3625" y1="8652.3599" x2="6739.7453" y2="8628.9771" gradientTransform="matrix(0.27, -0.9629, -0.9629, -0.27, 6573.0017, 8936.8071)" xlink:href="#linear-gradient-2"/>
    <linearGradient id="linear-gradient-33" x1="83.1758" y1="3335.2568" x2="91.7464" y2="3326.6861" gradientTransform="translate(1501.1424 -2891.5039) rotate(26.8649)" xlink:href="#linear-gradient-16"/>
    <linearGradient id="linear-gradient-34" x1="641.3623" y1="-1112.4348" x2="667.2562" y2="-1138.3287" gradientTransform="translate(-247.0265 1444.9156) rotate(-16.0182)" xlink:href="#linear-gradient-3"/>
    <linearGradient id="linear-gradient-35" x1="27.9599" y1="486.5346" x2="37.3421" y2="477.1524" gradientTransform="translate(51.1601 -306.1084) rotate(0.8211)" xlink:href="#linear-gradient-2"/>
    <linearGradient id="linear-gradient-36" x1="127.5653" y1="51.2138" x2="132.3658" y2="51.2138" gradientUnits="userSpaceOnUse">
      <stop offset="0" stop-color="#2eaade"/>
      <stop offset="1" stop-color="#2d6cea" stop-opacity="0.4"/>
    </linearGradient>
    <linearGradient id="linear-gradient-37" x1="98.9976" y1="146.1201" x2="107.7043" y2="146.1201" xlink:href="#linear-gradient-36"/>
    <linearGradient id="linear-gradient-38" x1="9.4669" y1="93.2766" x2="13.8202" y2="93.2766" xlink:href="#linear-gradient-36"/>
  </defs>
  <g id="Camada_2" data-name="Camada 2">
    <g id="Infos">
      <g>
        <g>
          <g>
            <path d="M29.4959,115.6918a12.8306,12.8306,0,1,1,9.6728-4.3946A12.8224,12.8224,0,0,1,29.4959,115.6918Z" fill="url(#linear-gradient)"/>
            <path d="M29.5064,90.5718a12.29,12.29,0,1,1-9.2644,4.2091,12.24,12.24,0,0,1,9.2644-4.2091m.0007-1.0821h0a13.3725,13.3725,0,1,0,8.7863,3.2972A13.3764,13.3764,0,0,0,29.5069,89.49Z" fill="#141f36"/>
          </g>
          <g>
            <path d="M51.9155,161.2982c-5.8564.9735-6.4038,15.3407.008,15.6077S58.0022,160.2865,51.9155,161.2982Z" stroke="#141f36" stroke-linecap="round" stroke-linejoin="round" stroke-width="0.541" fill="url(#linear-gradient-2)"/>
            <path d="M57.8174,158.0638c-6.1694-5.8426-14.7029,14.2652-1.0685,32.0985S73.1141,172.55,57.8174,158.0638Z" stroke="#141f36" stroke-linecap="round" stroke-linejoin="round" stroke-width="1.0819" fill="url(#linear-gradient-3)"/>
            <path d="M53.0739,158.1621s-7.21,22.3844,11.04,36.817" fill="none" stroke="#141f36" stroke-linecap="round" stroke-linejoin="round" stroke-width="0.541"/>
            <g opacity="0.1">
              <path d="M61.911,194.2006c-7.2115-12.3658-5.0151-28.5528-3.7794-34.7766.0979.0777.1946.1656.2908.2585C70.3562,171.3943,69.9116,196.9809,61.911,194.2006Z" fill="url(#linear-gradient-4)"/>
            </g>
          </g>
          <g>
            <path d="M63.1316,160.2509c-11.998,0-21.0649-10.9336-26.2217-31.6187A161.6183,161.6183,0,0,1,32.697,97.3036a.5411.5411,0,0,1,.2955-.4927c.1254-.064,12.7241-6.3706,30.8676-6.3706a79.4864,79.4864,0,0,1,31.0908,6.354.541.541,0,0,1,.33.5239,163.3564,163.3564,0,0,1-5.0737,31.3277C84.4846,149.3221,75.1218,160.2509,63.1316,160.2509Z" fill="url(#linear-gradient-5)"/>
            <path d="M63.86,90.9814a78.8906,78.8906,0,0,1,30.88,6.3112S91.7984,159.71,63.1316,159.71,33.2381,97.2926,33.2381,97.2926,45.6363,90.9814,63.86,90.9814m0-1.082c-18.2735,0-30.5974,6.1665-31.1131,6.429a1.082,1.082,0,0,0-.591.9854,162.2226,162.2226,0,0,0,4.2285,31.449c5.2236,20.9535,14.4724,32.0288,26.7468,32.0288,12.26,0,21.8027-11.066,27.5974-32.0018a164.0008,164.0008,0,0,0,5.0926-31.4463,1.0821,1.0821,0,0,0-.66-1.0475A80.02,80.02,0,0,0,63.86,89.8994Z" fill="#141f36"/>
          </g>
          <g opacity="0.1">
            <path d="M94.7407,97.2921s-2.9428,62.4172-31.6089,62.4172a18.0669,18.0669,0,0,1-11.29-3.9058c4.75-10.6246,13.6-18.4038,17.7276-24.4843,8.4717-12.48,12.9942-32.534,12.9942-32.534a14.9521,14.9521,0,0,1,2.8023-4.7984A80.4893,80.4893,0,0,1,94.7407,97.2921Z" fill="url(#linear-gradient-6)"/>
          </g>
          <g>
            <g>
              <path d="M52.7649,90.5624a96.28,96.28,0,0,1-18.8271-1.854,5.2127,5.2127,0,1,1,2.07-10.2178,85.6929,85.6929,0,0,0,16.7637,1.6509A81.01,81.01,0,0,0,85.7776,73.28a5.2128,5.2128,0,0,1,4.2192,9.5337A90.4774,90.4774,0,0,1,64.33,89.8622,95.7127,95.7127,0,0,1,52.7649,90.5624Z" fill="url(#linear-gradient-7)"/>
              <path d="M87.8853,73.373a4.673,4.673,0,0,1,1.8928,8.9455,89.8013,89.8013,0,0,1-25.5132,7.0067,94.8217,94.8217,0,0,1-11.5.6962,95.103,95.103,0,0,1-18.7193-1.8432A4.6718,4.6718,0,1,1,35.9,79.0206,85.72,85.72,0,0,0,52.771,80.6824a81.8761,81.8761,0,0,0,33.2254-6.9081,4.6579,4.6579,0,0,1,1.8889-.4013m.0005-1.0819h0a5.7161,5.7161,0,0,0-2.3274.4938A80.47,80.47,0,0,1,52.771,79.6005a85.1542,85.1542,0,0,1-16.6562-1.64,5.75,5.75,0,0,0-6.781,4.4974,5.7533,5.7533,0,0,0,4.497,6.781,96.8065,96.8065,0,0,0,18.9339,1.8647,96.2442,96.2442,0,0,0,11.6316-.7041,91.025,91.025,0,0,0,25.82-7.0913,5.755,5.755,0,0,0-2.33-11.0168Z" fill="#141f36"/>
            </g>
            <g>
              <g>
                <path d="M110.1033,44.8739c-2.9785-.0005-5.7354-4.1787-6.4131-9.72-.7109-5.8159,1.16-10.669,4.2588-11.0479a3.12,3.12,0,0,1,.3813-.0229c2.9786,0,5.7354,4.1782,6.4131,9.72.711,5.8159-1.16,10.6689-4.2588,11.0479a3.1182,3.1182,0,0,1-.3808.0229Z" fill="url(#linear-gradient-8)"/>
                <path d="M108.3306,24.624c2.6484,0,5.2373,4.0207,5.876,9.2447.664,5.432-1.0315,10.1085-3.7874,10.4453a2.5992,2.5992,0,0,1-.3159.0193c-2.6484,0-5.2373-4.0207-5.876-9.2447-.6638-5.4319,1.0318-10.1084,3.7874-10.4453a2.5979,2.5979,0,0,1,.3159-.0193m0-1.0819a3.6906,3.6906,0,0,0-.4473.0272c-3.4.4158-5.4775,5.5332-4.73,11.6505.7107,5.8123,3.6985,10.1954,6.95,10.1954a3.692,3.692,0,0,0,.4473-.0273c1.758-.2148,3.2006-1.6414,4.062-4.0171a16.9394,16.9394,0,0,0,.6679-7.6335c-.7107-5.8121-3.6984-10.1952-6.95-10.1952Z" fill="#141f36"/>
              </g>
              <g>
                <path d="M113.3914,71.4305a.54.54,0,0,1-.461-.2573L98.27,47.3661a.5409.5409,0,0,1,.4565-.8247l11.02-.0772a.5417.5417,0,0,1,.5078.3545l8.0005,21.7539a.5407.5407,0,0,1-.27.6724l-4.3569,2.13A.5343.5343,0,0,1,113.3914,71.4305Z" fill="url(#linear-gradient-9)"/>
                <path d="M109.7471,47.0054l8.0007,21.7538-4.3567,2.13L98.7305,47.0822l11.0166-.0768m0-1.0819H109.74L98.7229,46a1.0822,1.0822,0,0,0-.9138,1.6492L112.47,71.4569a1.0818,1.0818,0,0,0,1.3968.4047l4.3567-2.13a1.0816,1.0816,0,0,0,.54-1.3454L110.7625,46.632a1.0819,1.0819,0,0,0-1.0154-.7085Z" fill="#141f36"/>
              </g>
              <g>
                <path d="M103.1677,48.3505a.5408.5408,0,0,1-.5234-.4068c-.189-.7363-4.604-18.1069-2.9648-24.521a.5407.5407,0,0,1,.4585-.4033l6.5791-.8042a.6053.6053,0,0,1,.0659-.0039.5408.5408,0,0,1,.519.39c.0391.1353,3.9087,13.6275,2.9844,24.45a.5413.5413,0,0,1-.4736.4913l-6.5791.8042A.6086.6086,0,0,1,103.1677,48.3505Z" fill="url(#linear-gradient-10)"/>
                <path d="M106.7822,22.7524s3.8916,13.4059,2.9649,24.253l-6.5789.8043S98.58,29.9106,100.2034,23.5566l6.5788-.8042m.0008-1.082a1.0929,1.0929,0,0,0-.1321.0081l-6.5789.8042a1.0819,1.0819,0,0,0-.9169.8061c-1.6727,6.547,2.7749,24.0477,2.965,24.79a1.0825,1.0825,0,0,0,1.0472.8133,1.118,1.118,0,0,0,.1323-.008l6.5788-.8044a1.0821,1.0821,0,0,0,.9468-.9819c.9331-10.9219-2.8428-24.0913-3.0039-24.6466a1.0822,1.0822,0,0,0-1.0383-.78Z" fill="#141f36"/>
              </g>
              <path d="M103.9817,23.0948s3.4963,8.5814,2.9255,23.93" fill="none" stroke="#141f36" stroke-linecap="round" stroke-linejoin="round" stroke-width="0.541"/>
              <line x1="105.471" y1="58.0281" x2="112.7763" y2="55.2415" fill="none" stroke="#141f36" stroke-linecap="round" stroke-linejoin="round" stroke-width="0.541"/>
              <line x1="107.4183" y1="61.1904" x2="114.1355" y2="58.9374" fill="none" stroke="#141f36" stroke-linecap="round" stroke-linejoin="round" stroke-width="0.541"/>
            </g>
            <g>
              <g>
                <path d="M7.1018,57.4657c-2.9785,0-5.7353-4.1782-6.4131-9.72C-.0222,41.93,1.8484,37.077,4.948,36.6981a3.128,3.128,0,0,1,.3814-.0229c2.9785,0,5.7353,4.1782,6.4131,9.72.7109,5.8159-1.16,10.6689-4.2593,11.0478A3.1082,3.1082,0,0,1,7.1018,57.4657Z" fill="url(#linear-gradient-11)"/>
                <path d="M5.3291,37.2159c2.6485,0,5.2373,4.02,5.876,9.2447.6641,5.4319-1.0315,10.1084-3.7871,10.4452a2.6156,2.6156,0,0,1-.3159.0192c-2.6487,0-5.2373-4.02-5.876-9.2446C.562,42.2485,2.2576,37.572,5.0132,37.2351a2.6156,2.6156,0,0,1,.3159-.0192m0-1.082h0a3.6865,3.6865,0,0,0-.4472.0272c-3.4.4158-5.4776,5.5334-4.73,11.6507.7107,5.8121,3.6985,10.1952,6.95,10.1952a3.6891,3.6891,0,0,0,.4472-.0273c1.7579-.2148,3.2005-1.6414,4.0618-4.0171a16.9392,16.9392,0,0,0,.668-7.6334c-.7107-5.8122-3.6985-10.1953-6.95-10.1953Z" fill="#141f36"/>
              </g>
              <g>
                <path d="M10.9363,83.9559a.5386.5386,0,0,1-.1143-.0122L6.08,82.9252a.5406.5406,0,0,1-.4238-.5879l2.5244-23.04a.54.54,0,0,1,.4112-.4668L19.303,56.2509a.531.531,0,0,1,.1265-.0152.5413.5413,0,0,1,.5156.7056L11.4514,83.58A.5409.5409,0,0,1,10.9363,83.9559Z" fill="url(#linear-gradient-12)"/>
                <path d="M19.4292,56.7766h.0049m-.0049,0L10.9358,83.4148,6.1941,82.3965l2.5247-23.04,10.71-2.5795m0-1.0819c-.02,0-.04.0005-.0605.0016a1.0783,1.0783,0,0,0-.2158.034L8.4654,58.3042a1.0816,1.0816,0,0,0-.8221.9341l-2.5246,23.04a1.0816,1.0816,0,0,0,.8481,1.1756l4.7417,1.0184a1.0815,1.0815,0,0,0,1.2581-.7293l8.4719-26.5709a1.0816,1.0816,0,0,0-1-1.4778Zm0,2.1638h0Z" fill="#141f36"/>
              </g>
              <g>
                <path d="M8.718,59.8969a.542.542,0,0,1-.5117-.3667C4.7024,49.25,5.2078,35.222,5.2132,35.0819a.541.541,0,0,1,.4751-.5161l6.5791-.8042a.6036.6036,0,0,1,.0654-.0039.5414.5414,0,0,1,.4765.2847c3.1353,5.831,3.0352,23.7534,3.0293,24.5131a.5412.5412,0,0,1-.4755.5332l-6.5791.8042A.5845.5845,0,0,1,8.718,59.8969Z" fill="url(#linear-gradient-13)"/>
                <path d="M12.3328,34.2987c3.1062,5.7759,2.9648,24.2531,2.9648,24.2531l-6.5788.8043C5.2063,49.0516,5.7537,35.103,5.7537,35.103l6.5791-.8043m0-1.082a1.1063,1.1063,0,0,0-.1316.008l-6.5791.8044a1.0819,1.0819,0,0,0-.95,1.0314C4.65,35.6383,4.158,49.33,7.6946,59.7052a1.0822,1.0822,0,0,0,1.0234.7329A1.1109,1.1109,0,0,0,8.85,60.43l6.5789-.8044A1.0823,1.0823,0,0,0,16.38,58.56c.0058-.7658.1064-18.8226-3.094-24.7738a1.0822,1.0822,0,0,0-.9527-.57Z" fill="#141f36"/>
              </g>
              <path d="M8.5543,34.7607s-1.326,9.1709,2.9255,23.93" fill="none" stroke="#141f36" stroke-linecap="round" stroke-linejoin="round" stroke-width="0.541"/>
              <line x1="15.5242" y1="69.024" x2="7.7629" y2="68.0793" fill="none" stroke="#141f36" stroke-linecap="round" stroke-linejoin="round" stroke-width="0.541"/>
              <line x1="14.3961" y1="72.5622" x2="7.334" y2="71.9938" fill="none" stroke="#141f36" stroke-linecap="round" stroke-linejoin="round" stroke-width="0.541"/>
            </g>
            <g>
              <path d="M54.0847,86.5126a74.4823,74.4823,0,0,1-29.1606-5.6953.5421.5421,0,0,1-.1846-.1441C15.9812,70.0541,7.2508,46.183,15.263,26.36,21.032,12.0858,34.5969,3.348,54.491,1.0922A82.6407,82.6407,0,0,1,63.7488.5409c14.6025,0,25.4043,4.5908,32.1045,13.644C110.9187,34.54,100.012,71.0468,99.9,71.4135a.54.54,0,0,1-.2056.2836C85.7576,81.5277,70.4134,86.5126,54.09,86.5126Z" fill="url(#linear-gradient-14)"/>
              <path d="M63.7483,1.0819c57.0728,0,35.6345,70.1732,35.6345,70.1732A77.4709,77.4709,0,0,1,54.0842,85.9718c-17.1079,0-28.9274-5.6426-28.9274-5.6426C9.3875,61.2092-.7427,7.9005,54.5518,1.63a81.6919,81.6919,0,0,1,9.1965-.5477m0-1.0819A83.1983,83.1983,0,0,0,54.43.5546c-14.0184,1.59-32.28,7.3221-39.6687,25.6029-8.0953,20.0287.7175,44.1378,9.5607,54.86a1.0812,1.0812,0,0,0,.3687.2879c.4917.2348,12.2378,5.7482,29.3935,5.7482,16.4415,0,31.8919-5.0179,45.9222-14.9144a1.0817,1.0817,0,0,0,.4111-.568,109.0634,109.0634,0,0,0,3.7161-20.9682c.8293-10.8041.1413-25.9486-7.8455-36.74C89.48,4.6643,78.5318,0,63.7483,0Z" fill="#141f36"/>
            </g>
            <g opacity="0.8">
              <path d="M96.2325,66.28c-.4985.364-.99.7185-1.4911,1.0655-28.61,20.0431-59.0608,10.8478-66.4866,8.1192-1.1113-.4009-1.7028-.6663-1.7028-.6663S3.7135,31.0528,55.783,24.6874,96.2325,66.28,96.2325,66.28Z" fill="url(#linear-gradient-15)"/>
            </g>
            <g>
              <path d="M54.3987,80.49A79.125,79.125,0,0,1,28.0642,75.974a.5415.5415,0,0,1-.31-.293C24.94,69.1761,17.3631,47.1171,38.0305,36.3759c4.9156-2.5508,11.1558-4.3023,18.5474-5.2056a71.9192,71.9192,0,0,1,8.6592-.5606c10.2866,0,18.1416,2.7,23.3457,8.024,6.3271,6.4726,7.479,15.5556,7.3315,22.0356a48.9955,48.9955,0,0,1-.6382,6.7651.54.54,0,0,1-.2231.3536A69.5114,69.5114,0,0,1,54.3987,80.49Z" fill="url(#linear-gradient-16)"/>
              <path d="M65.2366,31.1506c26.6777-.0014,30.3945,18.1922,30.1367,29.5064a48.3883,48.3883,0,0,1-.6306,6.688A69.2808,69.2808,0,0,1,54.3992,79.9491a78.3529,78.3529,0,0,1-26.1484-4.4828C25.3943,68.8643,18.06,47.365,38.28,36.8557c4.5825-2.3777,10.58-4.197,18.3635-5.1485a71.0017,71.0017,0,0,1,8.593-.5566m.0034-1.0819h-.0034a72.4127,72.4127,0,0,0-8.7244.5645c-7.4558.9115-13.7575,2.682-18.73,5.2622-21.0828,10.9574-13.3853,33.3871-10.524,40a1.0819,1.0819,0,0,0,.62.5862A79.7082,79.7082,0,0,0,54.3992,81.031a70.0432,70.0432,0,0,0,40.9643-12.8,1.0813,1.0813,0,0,0,.4463-.7074,49.4252,49.4252,0,0,0,.6451-6.84c.15-6.5859-1.0269-15.821-7.4859-22.4288-5.31-5.4319-13.2932-8.1862-23.729-8.1862Z" fill="#141f36"/>
            </g>
            <path d="M95.3732,60.657C53.9449,70.2254,41.7955,48.6123,38.28,36.8557c4.5824-2.3777,10.58-4.197,18.3634-5.1485C91.1376,27.49,95.6565,48.226,95.3732,60.657Z" fill="#141f36" opacity="0.7"/>
            <g>
              <path d="M22.9671,15.3309S24.58,26.1,28.3577,23.8131A69.8055,69.8055,0,0,1,56.52,14.4461" fill="none" stroke="#141f36" stroke-linecap="round" stroke-linejoin="round" stroke-width="0.541"/>
              <path d="M89.2979,7.2221s1.0293,10.84-3.1885,9.5309A69.8068,69.8068,0,0,0,56.52,14.4461" fill="none" stroke="#141f36" stroke-linecap="round" stroke-linejoin="round" stroke-width="0.541"/>
            </g>
            <ellipse cx="94.1519" cy="18.1071" rx="1.0289" ry="2.0578" transform="translate(8.0395 60.2627) rotate(-36.9698)" stroke-width="0.541" stroke="#141f36" stroke-linecap="round" stroke-linejoin="round" fill="none"/>
            <ellipse cx="18.3717" cy="27.3711" rx="2.0578" ry="1.0289" transform="translate(-14.0052 33.5705) rotate(-66.9698)" stroke-width="0.541" stroke="#141f36" stroke-linecap="round" stroke-linejoin="round" fill="none"/>
          </g>
          <g opacity="0.8">
            <path d="M85.9788,139.3671c-4.7078,11.241-11.91,20.34-22.8487,20.34C63.13,159.7073,63.31,137.6493,85.9788,139.3671Z" fill="url(#linear-gradient-17)"/>
          </g>
          <path d="M94.7406,97.2923c-41.3345,6.7849-61.5023,0-61.5023,0S61.1325,83.09,94.7406,97.2923Z" fill="url(#linear-gradient-18)"/>
          <path d="M85.9788,139.3671c-4.7078,11.241-11.91,20.34-22.8487,20.34C63.13,159.7073,63.31,137.6493,85.9788,139.3671Z" fill="none" stroke="#141f36" stroke-linecap="round" stroke-linejoin="round" stroke-width="0.541"/>
          <line x1="68.0879" y1="129.1538" x2="72.9444" y2="141.7667" fill="none" stroke="#141f36" stroke-linecap="round" stroke-linejoin="round" stroke-width="0.541"/>
          <path d="M33.2383,97.2923s19.0188,6.7107,61.5023,0" fill="none" stroke="#141f36" stroke-linecap="round" stroke-linejoin="round" stroke-width="0.541"/>
          <path d="M77.4165,95.4123c-11.9374-4.0049-26.5024.2317-26.5024.2317S64.8561,100.4221,77.4165,95.4123Z" stroke="#141f36" stroke-linecap="round" stroke-linejoin="round" stroke-width="1.0819" fill="url(#linear-gradient-19)"/>
          <path d="M68.0844,129.0722s2.7562-3.5773,6.6733-14.6459c-9.5232-1.3583-14.7759,1.7571-14.7759,1.7571a47.42,47.42,0,0,0-7.7364,13.1284S62.1187,130.6917,68.0844,129.0722Z" fill="url(#linear-gradient-20)"/>
          <path d="M37.0617,126.958s16.7436,4.2742,31.0262,2.1958a142.7744,142.7744,0,0,0,11.62-29.8616" fill="none" stroke="#141f36" stroke-linecap="round" stroke-linejoin="round" stroke-width="0.541"/>
          <circle cx="62.7996" cy="120.7936" r="6.8661" stroke="#141f36" stroke-linecap="round" stroke-linejoin="round" stroke-width="0.541" fill="url(#linear-gradient-21)"/>
          <line x1="34.1404" y1="96.8698" x2="50.9141" y2="95.644" fill="none" stroke="#141f36" stroke-linecap="round" stroke-linejoin="round" stroke-width="0.541"/>
          <line x1="77.4165" y1="95.4123" x2="93.7131" y2="96.8698" fill="none" stroke="#141f36" stroke-linecap="round" stroke-linejoin="round" stroke-width="0.541"/>
          <path d="M34.929,99.7339s1.5714,21.1507,3.3437,25.6117" fill="none" stroke="#fff" stroke-linecap="round" stroke-linejoin="round" stroke-width="0.541"/>
          <path d="M40.0367,129.7238s2.7046,14.4045,10.7552,22.4975" fill="none" stroke="#fff" stroke-linecap="round" stroke-linejoin="round" stroke-width="0.541"/>
          <path d="M21.8576,17.9408S11.528,28.9426,14.58,51.02A61.1387,61.1387,0,0,0,26.2875,79.4733" fill="none" stroke="#fff" stroke-linecap="round" stroke-linejoin="round" stroke-width="0.541"/>
          <path d="M3.732,38.5878S-1.0056,46.6873,5.9046,55.66" fill="none" stroke="#fff" stroke-linecap="round" stroke-linejoin="round" stroke-width="0.541"/>
          <path d="M24.4,15.0019S39.0827.422,68.5766,2.0853" fill="none" stroke="#fff" stroke-linecap="round" stroke-linejoin="round" stroke-width="0.541"/>
          <ellipse cx="38.8352" cy="57.0133" rx="11.0087" ry="8.4395" transform="translate(-24.9083 83.3849) rotate(-78.2144)" fill="url(#linear-gradient-22)"/>
          <ellipse cx="80.0117" cy="52.3918" rx="8.4395" ry="11.0087" transform="translate(-14.261 36.2847) rotate(-23.5211)" fill="url(#linear-gradient-23)"/>
          <line x1="30.3423" y1="110.5292" x2="36.0867" y2="122.4161" fill="none" stroke-linecap="round" stroke-linejoin="round" stroke-width="8.1146" stroke="url(#linear-gradient-24)"/>
          <path d="M27.6106,113.2023a13.2866,13.2866,0,0,1,5.7008-4.0682" fill="none" stroke="#141f36" stroke-linecap="round" stroke-linejoin="round" stroke-width="0.541"/>
          <path d="M29.5014,117.36s1.29-2.946,6.05-5.0573" fill="none" stroke="#141f36" stroke-linecap="round" stroke-linejoin="round" stroke-width="0.541"/>
          <g>
            <g>
              <path d="M34.7517,131.2753a.5411.5411,0,0,1-.4741-.2808c-.146-.2656-3.55-6.6367-1.5454-18.1558a.5429.5429,0,0,1,.3369-.4116l24.4273-9.499a.55.55,0,0,1,.1962-.0366.5421.5421,0,0,1,.34.1206c.0947.0766,9.4653,7.8535,7.0029,22.709a.5409.5409,0,0,1-.396.435c-.1611.042-16.24,4.2359-29.853,5.1182Z" fill="url(#linear-gradient-25)"/>
              <path d="M57.6926,103.4326s9.2491,7.4833,6.81,22.2c0,0-16.0322,4.2124-29.7505,5.1016,0,0-3.4817-6.3384-1.4863-17.8028l24.4272-9.499m0-1.0819a1.0812,1.0812,0,0,0-.3918.0735l-24.4273,9.499a1.0817,1.0817,0,0,0-.6738.8229c-2.0371,11.7036,1.4543,18.2368,1.604,18.5091a1.0817,1.0817,0,0,0,.948.5611c.0234,0,.0466-.0007.07-.0022,13.6643-.8858,29.7939-5.0924,29.9553-5.1349a1.0821,1.0821,0,0,0,.7925-.8695c2.5137-15.1642-6.7988-22.8965-7.1965-23.2181a1.0809,1.0809,0,0,0-.6807-.2409Z" fill="#141f36"/>
            </g>
            <path d="M61.7142,126.421s1.627-14.6469-7.0578-21.6359" fill="none" stroke="#141f36" stroke-linecap="round" stroke-linejoin="round" stroke-width="0.541"/>
            <path d="M59.29,126.9908s1.08-14.54-6.9444-21.3072" fill="none" stroke="#141f36" stroke-linecap="round" stroke-linejoin="round" stroke-width="0.541"/>
            <path d="M51.4139,105.6833c1.7013,2.1033.4494,5.7263-4.6116,7.2288-5.0988,1.5137-8.1462-.1069-8.4958-2.3881Z" stroke="#141f36" stroke-miterlimit="10" stroke-width="0.541" fill="url(#linear-gradient-26)"/>
          </g>
          <path d="M61.1452,111.375a14.87,14.87,0,0,0-12.5072-9.8235c-9.8778-1.1009-6.4737,14.2395,6.9578,19.2262S61.1452,111.375,61.1452,111.375Z" stroke="#141f36" stroke-linecap="round" stroke-linejoin="round" stroke-width="1.0819" fill="url(#linear-gradient-27)"/>
          <path d="M64.05,112.4941c2.7638-8.7508,16.4793-7.2657,19.839,3.2432C83.8893,115.7373,73.6669,122.9782,64.05,112.4941Z" stroke="#141f36" stroke-linecap="round" stroke-linejoin="round" stroke-width="1.0819" fill="url(#linear-gradient-28)"/>
          <g>
            <line x1="91.7078" y1="111.709" x2="79.4723" y2="123.9366" fill="none" stroke-linecap="round" stroke-linejoin="round" stroke-width="8.1146" stroke="url(#linear-gradient-29)"/>
            <g>
              <path d="M97.7913,120.3778a12.8883,12.8883,0,0,1-12.3237-9.2822A12.84,12.84,0,0,1,97.8025,94.71a12.8338,12.8338,0,0,1-.01,25.6675Z" fill="url(#linear-gradient-30)"/>
              <path d="M97.8028,95.2516a12.3,12.3,0,1,1-3.4073.4833,12.2952,12.2952,0,0,1,3.4073-.4833m0-1.0819a13.3743,13.3743,0,1,0,12.8432,9.6737A13.3867,13.3867,0,0,0,97.8028,94.17Z" fill="#141f36"/>
            </g>
            <path d="M101.3956,120.0367a11.632,11.632,0,0,1-1.62.3461,8.7388,8.7388,0,1,1,10.5063-12.3244A12.2829,12.2829,0,0,1,101.3956,120.0367Z" stroke="#141f36" stroke-linecap="round" stroke-linejoin="round" stroke-width="0.541" fill="url(#linear-gradient-31)"/>
            <path d="M96.0933,106.1847a16.43,16.43,0,0,1,10.3626,10.9538" fill="none" stroke="#141f36" stroke-linecap="round" stroke-linejoin="round" stroke-width="0.541"/>
            <g>
              <path d="M81.3806,140.1532a.5275.5275,0,0,1-.14-.0186c-13.18-3.52-28.1323-10.7685-28.2818-10.8413a.54.54,0,0,1-.3037-.5034c.4815-15.0513,11.1885-20.8511,11.2964-20.9082a.5408.5408,0,0,1,.5425.023l22.106,14.08a.541.541,0,0,1,.2505.4693c-.28,11.6885-4.8609,17.2739-5.0562,17.5058A.5387.5387,0,0,1,81.3806,140.1532Z" fill="url(#linear-gradient-32)"/>
              <path d="M64.2039,108.3608l22.1059,14.08c-.2788,11.6334-4.9294,17.1711-4.9294,17.1711-13.2815-3.5471-28.1846-10.805-28.1846-10.805.4773-14.91,11.0081-20.4461,11.0081-20.4461m0-1.0819a1.08,1.08,0,0,0-.5034.1243c-.4529.2379-11.0943,6.0057-11.586,21.369a1.0814,1.0814,0,0,0,.6077,1.0073c.15.0732,15.15,7.3445,28.3791,10.8777a1.0807,1.0807,0,0,0,1.1077-.3495c.2-.2379,4.898-5.9648,5.1824-17.841a1.0816,1.0816,0,0,0-.5-.9385l-22.1059-14.08a1.0825,1.0825,0,0,0-.5813-.1693Z" fill="#141f36"/>
            </g>
            <path d="M55.7767,130.1236s1.26-14.683,11.1413-19.8442" fill="none" stroke="#141f36" stroke-linecap="round" stroke-linejoin="round" stroke-width="0.541"/>
            <path d="M58.0428,131.1551s1.7758-14.4713,10.9661-19.544" fill="none" stroke="#141f36" stroke-linecap="round" stroke-linejoin="round" stroke-width="0.541"/>
            <path d="M84.0358,114.0083s.9126,2.734,4.7316,5.973" fill="none" stroke="#141f36" stroke-linecap="round" stroke-linejoin="round" stroke-width="0.541"/>
            <path d="M81.0614,116.2667a22.0191,22.0191,0,0,0,5.4264,6.4006" fill="none" stroke="#141f36" stroke-linecap="round" stroke-linejoin="round" stroke-width="0.541"/>
            <path d="M71.8368,123.3269c9.067,4.1069,12.5127-3.6406,3.9292-7.7567S63.7132,119.6472,71.8368,123.3269Z" stroke="#141f36" stroke-miterlimit="10" stroke-width="0.541" fill="url(#linear-gradient-33)"/>
          </g>
          <path d="M95.2307,48.3884A15.614,15.614,0,0,1,70.4072,64.19a14.9515,14.9515,0,0,1-2.3448-2.259,15.4578,15.4578,0,0,1-3.27-6.5536A15.6163,15.6163,0,0,1,76.52,36.6661a15.4216,15.4216,0,0,1,7.3186.0846,15.164,15.164,0,0,1,3.06,1.118,15.5989,15.5989,0,0,1,8.3325,10.52Z" fill="#fff" stroke="#3f5679" stroke-linecap="round" stroke-linejoin="round" stroke-width="1.6229" opacity="0.15"/>
          <path d="M54.1638,53.4946A15.7294,15.7294,0,0,1,42.3563,72.3412a15.2506,15.2506,0,0,1-1.9143.3174,15.5424,15.5424,0,0,1-6.4993-.7,15.0012,15.0012,0,0,1-3.19-1.4656,14.6289,14.6289,0,0,1-2.563-1.9037,15.7254,15.7254,0,0,1,16.4178-26.205A14.6334,14.6334,0,0,1,47.439,43.86a15.2636,15.2636,0,0,1,2.709,2.2254A15.5864,15.5864,0,0,1,53.61,51.64,14.2262,14.2262,0,0,1,54.1638,53.4946Z" fill="#fff" stroke="#3f5679" stroke-linecap="round" stroke-linejoin="round" stroke-width="1.6229" opacity="0.15"/>
          <g opacity="0.3">
            <path d="M86.8982,37.8687,70.4072,64.19a14.9515,14.9515,0,0,1-2.3448-2.259L83.8386,36.7507A15.164,15.164,0,0,1,86.8982,37.8687Z" fill="#fff" opacity="0.2"/>
            <path d="M93.78,44.5142l-14.391,22.97a15.5191,15.5191,0,0,1-6.0158-1.4716l16.453-26.2687A15.4412,15.4412,0,0,1,93.78,44.5142Z" fill="#fff" opacity="0.2"/>
            <path d="M47.439,43.86,30.7531,70.493a14.6289,14.6289,0,0,1-2.563-1.9037l16.4178-26.205A14.6334,14.6334,0,0,1,47.439,43.86Z" fill="#fff" opacity="0.2"/>
            <path d="M53.61,51.64,40.442,72.6586a15.5424,15.5424,0,0,1-6.4993-.7L50.148,46.0854A15.5864,15.5864,0,0,1,53.61,51.64Z" fill="#fff" opacity="0.2"/>
          </g>
          <g>
            <path d="M71.1127,163.202c-3.732-.102-10.2635,27.5648-3.8818,37.6176S93.4786,163.8135,71.1127,163.202Z" stroke="#141f36" stroke-linecap="round" stroke-linejoin="round" stroke-width="1.0819" fill="url(#linear-gradient-34)"/>
            <path d="M72.6964,163.7037c-4.85,6.3149-8.3853,34.665-.6633,37.2923" fill="none" stroke="#141f36" stroke-linecap="round" stroke-linejoin="round" stroke-width="0.541"/>
            <path d="M76.9822,168.384c-5.8244.7543-6.876,14.9386-.5467,15.43S83.0356,167.6,76.9822,168.384Z" stroke="#141f36" stroke-linecap="round" stroke-linejoin="round" stroke-width="0.541" fill="url(#linear-gradient-35)"/>
          </g>
          <path d="M28.2625,115.5627l-1.7962-3.7185a3.9894,3.9894,0,0,1,1.7962-4.7585,4.0394,4.0394,0,0,1,5.7907,1.6925,21.5733,21.5733,0,0,1,1.2052,2.5933" fill="none" stroke="#141f36" stroke-linecap="round" stroke-linejoin="round" stroke-width="0.541"/>
          <g>
            <circle cx="80.0117" cy="51.8822" r="17.7585" fill="none" stroke="#2eaade" stroke-linecap="round" stroke-linejoin="round" stroke-width="1.6229"/>
            <circle cx="38.8352" cy="57.0133" r="17.7585" fill="none" stroke="#2eaade" stroke-linecap="round" stroke-linejoin="round" stroke-width="1.6229"/>
            <path d="M56.5378,55.5932s3.5546-1.7211,5.9843-.63" fill="none" stroke="#2eaade" stroke-linecap="round" stroke-linejoin="round" stroke-width="1.6229"/>
            <line x1="97.3198" y1="47.9079" x2="105.476" y2="45.7063" fill="none" stroke="#2eaade" stroke-linecap="round" stroke-linejoin="round" stroke-width="1.6229"/>
            <line x1="12.9044" y1="61.807" x2="21.2898" y2="60.78" fill="none" stroke="#2eaade" stroke-linecap="round" stroke-linejoin="round" stroke-width="1.6229"/>
          </g>
        </g>
        <circle cx="129.9656" cy="51.2138" r="2.4003" opacity="0.5" fill="url(#linear-gradient-36)"/>
        <circle cx="103.3509" cy="146.1201" r="4.3534" opacity="0.5" fill="url(#linear-gradient-37)"/>
        <circle cx="11.6436" cy="93.2766" r="2.1767" opacity="0.5" fill="url(#linear-gradient-38)"/>
      </g>
    </g>
  </g>
</svg>
